<mxfile host="app.diagrams.net" modified="2022-12-16T13:13:28.929Z" agent="5.0 (X11; Linux x86_64) AppleWebKit/537.36 (KHTML, like Gecko) Chrome/95.0.4638.69 Safari/537.36" etag="XGoM-Wh0mZ_tKHAGdIsj" version="20.7.3" type="github">
  <diagram id="kBsvVx11HqB_BdpJZz5O" name="Page-1">
    <mxGraphModel dx="11561" dy="5167" grid="1" gridSize="10" guides="1" tooltips="1" connect="1" arrows="1" fold="1" page="1" pageScale="1" pageWidth="827" pageHeight="1169" math="0" shadow="0">
      <root>
        <mxCell id="0" />
        <mxCell id="1" parent="0" />
        <mxCell id="3ZzalH3yHNWKxI1yRY4I-15" style="edgeStyle=orthogonalEdgeStyle;rounded=0;orthogonalLoop=1;jettySize=auto;html=1;exitX=0.5;exitY=0;exitDx=0;exitDy=0;entryX=0;entryY=0.5;entryDx=0;entryDy=0;fontSize=50;strokeWidth=3;" parent="1" source="3ZzalH3yHNWKxI1yRY4I-196" target="3ZzalH3yHNWKxI1yRY4I-3" edge="1">
          <mxGeometry relative="1" as="geometry">
            <Array as="points">
              <mxPoint x="1088" y="50" />
            </Array>
          </mxGeometry>
        </mxCell>
        <mxCell id="3ZzalH3yHNWKxI1yRY4I-3" value="Risque de piqûre" style="swimlane;fontStyle=1;align=center;verticalAlign=top;childLayout=stackLayout;horizontal=1;startSize=70;horizontalStack=0;resizeParent=1;resizeParentMax=0;resizeLast=0;collapsible=1;marginBottom=0;fillColor=#f8cecc;strokeColor=#b85450;fontSize=50;" parent="1" vertex="1">
          <mxGeometry x="1270" width="540" height="100" as="geometry" />
        </mxCell>
        <mxCell id="3ZzalH3yHNWKxI1yRY4I-4" value="" style="line;strokeWidth=1;fillColor=none;align=left;verticalAlign=middle;spacingTop=-1;spacingLeft=3;spacingRight=3;rotatable=0;labelPosition=right;points=[];portConstraint=eastwest;fontSize=50;" parent="3ZzalH3yHNWKxI1yRY4I-3" vertex="1">
          <mxGeometry y="70" width="540" height="30" as="geometry" />
        </mxCell>
        <mxCell id="3ZzalH3yHNWKxI1yRY4I-19" style="edgeStyle=orthogonalEdgeStyle;rounded=0;orthogonalLoop=1;jettySize=auto;html=1;entryX=0.5;entryY=0;entryDx=0;entryDy=0;fontSize=50;fontColor=#EA6B66;startArrow=none;startFill=0;endArrow=none;endFill=0;strokeWidth=3;" parent="1" source="3ZzalH3yHNWKxI1yRY4I-20" target="3ZzalH3yHNWKxI1yRY4I-262" edge="1">
          <mxGeometry relative="1" as="geometry" />
        </mxCell>
        <mxCell id="3ZzalH3yHNWKxI1yRY4I-20" value="Exposition" style="swimlane;fontStyle=1;align=center;verticalAlign=top;childLayout=stackLayout;horizontal=1;startSize=88;horizontalStack=0;resizeParent=1;resizeParentMax=0;resizeLast=0;collapsible=1;marginBottom=0;fillColor=#647687;strokeColor=#314354;fontColor=#ffffff;fontSize=50;" parent="1" vertex="1">
          <mxGeometry x="910" y="646" width="440" height="210" as="geometry">
            <mxRectangle x="600" y="310" width="90" height="26" as="alternateBounds" />
          </mxGeometry>
        </mxCell>
        <mxCell id="3ZzalH3yHNWKxI1yRY4I-21" value="+ niveau: real&#xa;+ durée: real&#xa;+ fréquence: real" style="text;align=left;verticalAlign=top;spacingLeft=4;spacingRight=4;overflow=hidden;rotatable=0;points=[[0,0.5],[1,0.5]];portConstraint=eastwest;fontSize=50;" parent="3ZzalH3yHNWKxI1yRY4I-20" vertex="1">
          <mxGeometry y="88" width="440" height="54" as="geometry" />
        </mxCell>
        <mxCell id="3ZzalH3yHNWKxI1yRY4I-22" value="" style="line;strokeWidth=1;fillColor=none;align=left;verticalAlign=middle;spacingTop=-1;spacingLeft=3;spacingRight=3;rotatable=0;labelPosition=right;points=[];portConstraint=eastwest;fontSize=50;" parent="3ZzalH3yHNWKxI1yRY4I-20" vertex="1">
          <mxGeometry y="142" width="440" height="68" as="geometry" />
        </mxCell>
        <mxCell id="3ZzalH3yHNWKxI1yRY4I-23" value="" style="rhombus;aspect=fixed;fontSize=50;strokeWidth=3;" parent="1" vertex="1">
          <mxGeometry x="1040" y="402" width="96" height="96" as="geometry" />
        </mxCell>
        <mxCell id="3ZzalH3yHNWKxI1yRY4I-24" value="" style="endArrow=none;html=1;rounded=0;align=center;verticalAlign=bottom;labelBackgroundColor=none;exitX=1;exitY=0.25;exitDx=0;exitDy=0;edgeStyle=elbowEdgeStyle;fontSize=50;endSize=7;strokeWidth=3;" parent="1" source="3ZzalH3yHNWKxI1yRY4I-266" target="3ZzalH3yHNWKxI1yRY4I-23" edge="1">
          <mxGeometry relative="1" as="geometry">
            <mxPoint x="630" y="585.5" as="sourcePoint" />
          </mxGeometry>
        </mxCell>
        <mxCell id="3ZzalH3yHNWKxI1yRY4I-25" value="" style="endArrow=none;html=1;rounded=0;align=center;verticalAlign=bottom;labelBackgroundColor=none;entryX=0.5;entryY=0;entryDx=0;entryDy=0;edgeStyle=elbowEdgeStyle;elbow=vertical;fontSize=50;endSize=7;strokeWidth=3;" parent="1" source="3ZzalH3yHNWKxI1yRY4I-23" target="3ZzalH3yHNWKxI1yRY4I-20" edge="1">
          <mxGeometry relative="1" as="geometry">
            <mxPoint x="810" y="586" as="targetPoint" />
          </mxGeometry>
        </mxCell>
        <mxCell id="3ZzalH3yHNWKxI1yRY4I-26" style="edgeStyle=orthogonalEdgeStyle;rounded=0;orthogonalLoop=1;jettySize=auto;html=1;endArrow=none;endFill=0;entryX=1;entryY=0.5;entryDx=0;entryDy=0;fontSize=50;endSize=7;strokeWidth=3;" parent="1" target="3ZzalH3yHNWKxI1yRY4I-23" edge="1" source="ZHWQrGtpnkybYDUMCbcR-5">
          <mxGeometry relative="1" as="geometry">
            <mxPoint x="1752.000000000001" y="585.5" as="targetPoint" />
            <mxPoint x="1330.000000000001" y="588" as="sourcePoint" />
          </mxGeometry>
        </mxCell>
        <mxCell id="3ZzalH3yHNWKxI1yRY4I-280" style="edgeStyle=orthogonalEdgeStyle;rounded=0;orthogonalLoop=1;jettySize=auto;html=1;exitX=0.5;exitY=0;exitDx=0;exitDy=0;entryX=0;entryY=0.5;entryDx=0;entryDy=0;endArrow=none;endFill=0;fontSize=50;strokeWidth=3;" parent="1" source="3ZzalH3yHNWKxI1yRY4I-30" target="3ZzalH3yHNWKxI1yRY4I-271" edge="1">
          <mxGeometry relative="1" as="geometry" />
        </mxCell>
        <mxCell id="3ZzalH3yHNWKxI1yRY4I-30" value="piqûre(s)" style="swimlane;fontStyle=1;align=center;verticalAlign=top;childLayout=stackLayout;horizontal=1;startSize=74;horizontalStack=0;resizeParent=1;resizeParentMax=0;resizeLast=0;collapsible=1;marginBottom=0;fontSize=50;" parent="1" vertex="1">
          <mxGeometry x="-310" y="1260" width="490" height="198" as="geometry" />
        </mxCell>
        <mxCell id="3ZzalH3yHNWKxI1yRY4I-31" value="" style="line;strokeWidth=1;fillColor=none;align=left;verticalAlign=middle;spacingTop=-1;spacingLeft=3;spacingRight=3;rotatable=0;labelPosition=right;points=[];portConstraint=eastwest;fontSize=50;" parent="3ZzalH3yHNWKxI1yRY4I-30" vertex="1">
          <mxGeometry y="74" width="490" height="124" as="geometry" />
        </mxCell>
        <mxCell id="3ZzalH3yHNWKxI1yRY4I-36" style="edgeStyle=orthogonalEdgeStyle;rounded=0;orthogonalLoop=1;jettySize=auto;html=1;exitX=0.5;exitY=1;exitDx=0;exitDy=0;entryX=0.25;entryY=1;entryDx=0;entryDy=0;endArrow=none;endFill=0;fontSize=50;" parent="1" source="3ZzalH3yHNWKxI1yRY4I-38" target="3ZzalH3yHNWKxI1yRY4I-72" edge="1">
          <mxGeometry relative="1" as="geometry">
            <Array as="points">
              <mxPoint x="-910" y="3873" />
              <mxPoint x="-142" y="3873" />
            </Array>
          </mxGeometry>
        </mxCell>
        <mxCell id="3ZzalH3yHNWKxI1yRY4I-37" style="edgeStyle=orthogonalEdgeStyle;rounded=0;orthogonalLoop=1;jettySize=auto;html=1;exitX=0.5;exitY=0;exitDx=0;exitDy=0;entryX=0.25;entryY=1;entryDx=0;entryDy=0;endArrow=diamond;endFill=0;fontSize=50;" parent="1" source="3ZzalH3yHNWKxI1yRY4I-38" target="3ZzalH3yHNWKxI1yRY4I-140" edge="1">
          <mxGeometry relative="1" as="geometry">
            <Array as="points">
              <mxPoint x="-910" y="3153" />
              <mxPoint x="-1128" y="3153" />
            </Array>
          </mxGeometry>
        </mxCell>
        <mxCell id="3ZzalH3yHNWKxI1yRY4I-38" value="Occupation/usage du sol" style="swimlane;fontStyle=1;align=center;verticalAlign=top;childLayout=stackLayout;horizontal=1;startSize=26;horizontalStack=0;resizeParent=1;resizeParentMax=0;resizeLast=0;collapsible=1;marginBottom=0;fillColor=#d5e8d4;strokeColor=#82b366;fontSize=50;" parent="1" vertex="1">
          <mxGeometry x="-1410" y="3319" width="160" height="60" as="geometry">
            <mxRectangle x="320" y="370" width="90" height="26" as="alternateBounds" />
          </mxGeometry>
        </mxCell>
        <mxCell id="3ZzalH3yHNWKxI1yRY4I-39" value="+ ..." style="text;strokeColor=none;fillColor=none;align=left;verticalAlign=top;spacingLeft=4;spacingRight=4;overflow=hidden;rotatable=0;points=[[0,0.5],[1,0.5]];portConstraint=eastwest;fontSize=50;" parent="3ZzalH3yHNWKxI1yRY4I-38" vertex="1">
          <mxGeometry y="26" width="160" height="26" as="geometry" />
        </mxCell>
        <mxCell id="3ZzalH3yHNWKxI1yRY4I-40" value="" style="line;strokeWidth=1;fillColor=none;align=left;verticalAlign=middle;spacingTop=-1;spacingLeft=3;spacingRight=3;rotatable=0;labelPosition=right;points=[];portConstraint=eastwest;fontSize=50;" parent="3ZzalH3yHNWKxI1yRY4I-38" vertex="1">
          <mxGeometry y="52" width="160" height="8" as="geometry" />
        </mxCell>
        <mxCell id="3ZzalH3yHNWKxI1yRY4I-41" style="edgeStyle=orthogonalEdgeStyle;rounded=0;orthogonalLoop=1;jettySize=auto;html=1;exitX=0.5;exitY=0;exitDx=0;exitDy=0;entryX=0.5;entryY=1;entryDx=0;entryDy=0;endArrow=block;endFill=0;elbow=vertical;fontSize=50;" parent="1" source="3ZzalH3yHNWKxI1yRY4I-42" target="3ZzalH3yHNWKxI1yRY4I-46" edge="1">
          <mxGeometry relative="1" as="geometry" />
        </mxCell>
        <mxCell id="3ZzalH3yHNWKxI1yRY4I-42" value="Conditions météo" style="swimlane;fontStyle=1;align=center;verticalAlign=top;childLayout=stackLayout;horizontal=1;startSize=71;horizontalStack=0;resizeParent=1;resizeParentMax=0;resizeLast=0;collapsible=1;marginBottom=0;fillColor=#d5e8d4;strokeColor=#82b366;fontSize=50;" parent="1" vertex="1">
          <mxGeometry x="-860" y="3590" width="431" height="158" as="geometry">
            <mxRectangle x="320" y="370" width="90" height="26" as="alternateBounds" />
          </mxGeometry>
        </mxCell>
        <mxCell id="3ZzalH3yHNWKxI1yRY4I-43" value="+ ..." style="text;strokeColor=none;fillColor=none;align=left;verticalAlign=top;spacingLeft=4;spacingRight=4;overflow=hidden;rotatable=0;points=[[0,0.5],[1,0.5]];portConstraint=eastwest;fontSize=50;" parent="3ZzalH3yHNWKxI1yRY4I-42" vertex="1">
          <mxGeometry y="71" width="431" height="79" as="geometry" />
        </mxCell>
        <mxCell id="3ZzalH3yHNWKxI1yRY4I-44" value="" style="line;strokeWidth=1;fillColor=none;align=left;verticalAlign=middle;spacingTop=-1;spacingLeft=3;spacingRight=3;rotatable=0;labelPosition=right;points=[];portConstraint=eastwest;fontSize=50;" parent="3ZzalH3yHNWKxI1yRY4I-42" vertex="1">
          <mxGeometry y="150" width="431" height="8" as="geometry" />
        </mxCell>
        <mxCell id="3ZzalH3yHNWKxI1yRY4I-45" style="edgeStyle=orthogonalEdgeStyle;rounded=0;orthogonalLoop=1;jettySize=auto;html=1;exitX=0.5;exitY=0;exitDx=0;exitDy=0;entryX=0.5;entryY=1;entryDx=0;entryDy=0;endArrow=diamond;endFill=0;fontSize=50;" parent="1" source="3ZzalH3yHNWKxI1yRY4I-46" target="3ZzalH3yHNWKxI1yRY4I-140" edge="1">
          <mxGeometry relative="1" as="geometry" />
        </mxCell>
        <mxCell id="3ZzalH3yHNWKxI1yRY4I-46" value="Climat" style="swimlane;fontStyle=1;align=center;verticalAlign=top;childLayout=stackLayout;horizontal=1;startSize=26;horizontalStack=0;resizeParent=1;resizeParentMax=0;resizeLast=0;collapsible=1;marginBottom=0;fillColor=#d5e8d4;strokeColor=#82b366;fontSize=50;" parent="1" vertex="1">
          <mxGeometry x="-1140" y="3319" width="160" height="60" as="geometry">
            <mxRectangle x="320" y="370" width="90" height="26" as="alternateBounds" />
          </mxGeometry>
        </mxCell>
        <mxCell id="3ZzalH3yHNWKxI1yRY4I-47" value="+ ..." style="text;strokeColor=none;fillColor=none;align=left;verticalAlign=top;spacingLeft=4;spacingRight=4;overflow=hidden;rotatable=0;points=[[0,0.5],[1,0.5]];portConstraint=eastwest;fontSize=50;" parent="3ZzalH3yHNWKxI1yRY4I-46" vertex="1">
          <mxGeometry y="26" width="160" height="26" as="geometry" />
        </mxCell>
        <mxCell id="3ZzalH3yHNWKxI1yRY4I-48" value="" style="line;strokeWidth=1;fillColor=none;align=left;verticalAlign=middle;spacingTop=-1;spacingLeft=3;spacingRight=3;rotatable=0;labelPosition=right;points=[];portConstraint=eastwest;fontSize=50;" parent="3ZzalH3yHNWKxI1yRY4I-46" vertex="1">
          <mxGeometry y="52" width="160" height="8" as="geometry" />
        </mxCell>
        <mxCell id="3ZzalH3yHNWKxI1yRY4I-49" style="edgeStyle=orthogonalEdgeStyle;rounded=0;orthogonalLoop=1;jettySize=auto;html=1;exitDx=0;exitDy=0;entryX=-0.005;entryY=0.38;entryDx=0;entryDy=0;endArrow=none;endFill=0;startArrow=none;fontSize=50;strokeWidth=3;entryPerimeter=0;" parent="1" source="3ZzalH3yHNWKxI1yRY4I-259" target="ZHWQrGtpnkybYDUMCbcR-2" edge="1">
          <mxGeometry relative="1" as="geometry">
            <mxPoint x="1615.000000000001" y="1737" as="targetPoint" />
            <Array as="points">
              <mxPoint x="714" y="1670" />
              <mxPoint x="1950" y="1670" />
              <mxPoint x="1950" y="1677" />
            </Array>
          </mxGeometry>
        </mxCell>
        <mxCell id="3ZzalH3yHNWKxI1yRY4I-51" value="Vecteur" style="swimlane;fontStyle=1;align=center;verticalAlign=top;childLayout=stackLayout;horizontal=1;startSize=60;horizontalStack=0;resizeParent=1;resizeParentMax=0;resizeLast=0;collapsible=1;marginBottom=0;fillColor=#dae8fc;strokeColor=#6c8ebf;fontSize=50;" parent="1" vertex="1">
          <mxGeometry x="-610" y="1580" width="260" height="70" as="geometry">
            <mxRectangle x="-370" y="1700" width="220" height="100" as="alternateBounds" />
          </mxGeometry>
        </mxCell>
        <mxCell id="3ZzalH3yHNWKxI1yRY4I-52" value="" style="line;strokeWidth=1;fillColor=none;align=left;verticalAlign=middle;spacingTop=-1;spacingLeft=3;spacingRight=3;rotatable=0;labelPosition=right;points=[];portConstraint=eastwest;fontSize=50;" parent="3ZzalH3yHNWKxI1yRY4I-51" vertex="1">
          <mxGeometry y="60" width="260" height="10" as="geometry" />
        </mxCell>
        <mxCell id="3ZzalH3yHNWKxI1yRY4I-54" style="edgeStyle=orthogonalEdgeStyle;rounded=0;orthogonalLoop=1;jettySize=auto;html=1;entryX=0;entryY=0.5;entryDx=0;entryDy=0;endArrow=block;endFill=0;exitX=1;exitY=0.5;exitDx=0;exitDy=0;fontSize=50;strokeWidth=3;" parent="1" source="eCTmfTK2wu2DxQ8o13dD-29" target="3ZzalH3yHNWKxI1yRY4I-212" edge="1">
          <mxGeometry relative="1" as="geometry">
            <mxPoint x="-595" y="1898" as="sourcePoint" />
          </mxGeometry>
        </mxCell>
        <mxCell id="3ZzalH3yHNWKxI1yRY4I-60" style="edgeStyle=orthogonalEdgeStyle;rounded=0;orthogonalLoop=1;jettySize=auto;html=1;exitX=0.25;exitY=0;exitDx=0;exitDy=0;entryX=0.5;entryY=1;entryDx=0;entryDy=0;endArrow=block;endFill=0;fontSize=50;strokeWidth=3;" parent="1" source="3ZzalH3yHNWKxI1yRY4I-63" edge="1" target="eCTmfTK2wu2DxQ8o13dD-29">
          <mxGeometry relative="1" as="geometry">
            <mxPoint x="-716.5000000000005" y="1930.9999999999995" as="targetPoint" />
          </mxGeometry>
        </mxCell>
        <mxCell id="3ZzalH3yHNWKxI1yRY4I-61" style="edgeStyle=orthogonalEdgeStyle;rounded=0;orthogonalLoop=1;jettySize=auto;html=1;entryX=0;entryY=0.5;entryDx=0;entryDy=0;endArrow=block;endFill=0;exitX=0.5;exitY=1;exitDx=0;exitDy=0;fontSize=50;strokeWidth=3;" parent="1" source="3ZzalH3yHNWKxI1yRY4I-63" target="3ZzalH3yHNWKxI1yRY4I-215" edge="1">
          <mxGeometry relative="1" as="geometry" />
        </mxCell>
        <mxCell id="3ZzalH3yHNWKxI1yRY4I-62" style="edgeStyle=orthogonalEdgeStyle;rounded=0;orthogonalLoop=1;jettySize=auto;html=1;exitX=0.75;exitY=1;exitDx=0;exitDy=0;endArrow=block;endFill=0;fontSize=50;strokeWidth=3;" parent="1" source="3ZzalH3yHNWKxI1yRY4I-63" edge="1">
          <mxGeometry relative="1" as="geometry">
            <mxPoint x="-370" y="1650" as="targetPoint" />
            <Array as="points">
              <mxPoint x="-1332" y="2360" />
              <mxPoint x="-370" y="2360" />
            </Array>
          </mxGeometry>
        </mxCell>
        <mxCell id="3ZzalH3yHNWKxI1yRY4I-63" value="Ae. Albopictus" style="swimlane;fontStyle=1;align=center;verticalAlign=top;childLayout=stackLayout;horizontal=1;startSize=73;horizontalStack=0;resizeParent=1;resizeParentMax=0;resizeLast=0;collapsible=1;marginBottom=0;fillColor=#dae8fc;strokeColor=#6c8ebf;fontSize=50;" parent="1" vertex="1">
          <mxGeometry x="-1880" y="1998" width="730" height="337" as="geometry" />
        </mxCell>
        <mxCell id="3ZzalH3yHNWKxI1yRY4I-64" value="+ anthropophilie: boolean (real?)&#xa;+ endophilie: boolean (real?)&#xa;+ endophagie: boolean (real?)&#xa;+..." style="text;strokeColor=none;fillColor=none;align=left;verticalAlign=top;spacingLeft=4;spacingRight=4;overflow=hidden;rotatable=0;points=[[0,0.5],[1,0.5]];portConstraint=eastwest;fontSize=50;" parent="3ZzalH3yHNWKxI1yRY4I-63" vertex="1">
          <mxGeometry y="73" width="730" height="254" as="geometry" />
        </mxCell>
        <mxCell id="3ZzalH3yHNWKxI1yRY4I-65" value="" style="line;strokeWidth=1;fillColor=none;align=left;verticalAlign=middle;spacingTop=-1;spacingLeft=3;spacingRight=3;rotatable=0;labelPosition=right;points=[];portConstraint=eastwest;fontSize=50;" parent="3ZzalH3yHNWKxI1yRY4I-63" vertex="1">
          <mxGeometry y="327" width="730" height="10" as="geometry" />
        </mxCell>
        <mxCell id="3ZzalH3yHNWKxI1yRY4I-66" style="edgeStyle=orthogonalEdgeStyle;rounded=0;orthogonalLoop=1;jettySize=auto;html=1;exitX=0.25;exitY=0;exitDx=0;exitDy=0;endArrow=block;endFill=0;fontSize=50;strokeWidth=3;entryX=0.639;entryY=1.057;entryDx=0;entryDy=0;entryPerimeter=0;" parent="1" source="3ZzalH3yHNWKxI1yRY4I-68" edge="1" target="eCTmfTK2wu2DxQ8o13dD-30">
          <mxGeometry relative="1" as="geometry">
            <mxPoint x="-700" y="1910" as="targetPoint" />
          </mxGeometry>
        </mxCell>
        <mxCell id="3ZzalH3yHNWKxI1yRY4I-67" style="edgeStyle=orthogonalEdgeStyle;rounded=0;orthogonalLoop=1;jettySize=auto;html=1;exitX=0.75;exitY=0;exitDx=0;exitDy=0;entryX=0.75;entryY=1;entryDx=0;entryDy=0;endArrow=block;endFill=0;fontSize=50;strokeWidth=3;" parent="1" source="3ZzalH3yHNWKxI1yRY4I-68" target="3ZzalH3yHNWKxI1yRY4I-51" edge="1">
          <mxGeometry relative="1" as="geometry">
            <Array as="points">
              <mxPoint x="-477" y="1976" />
              <mxPoint x="-229" y="1976" />
            </Array>
          </mxGeometry>
        </mxCell>
        <mxCell id="3ZzalH3yHNWKxI1yRY4I-68" value="Ae. Aegypti" style="swimlane;fontStyle=1;align=center;verticalAlign=top;childLayout=stackLayout;horizontal=1;startSize=72;horizontalStack=0;resizeParent=1;resizeParentMax=0;resizeLast=0;collapsible=1;marginBottom=0;fillColor=#dae8fc;strokeColor=#6c8ebf;fontSize=50;" parent="1" vertex="1">
          <mxGeometry x="-1100" y="1998" width="650" height="350" as="geometry" />
        </mxCell>
        <mxCell id="3ZzalH3yHNWKxI1yRY4I-69" value="+ anthropophilie: boolean (real?)&#xa;+ endophilie: boolean (real?)&#xa;+ endophagie: boolean (real?)&#xa;+..." style="text;strokeColor=none;fillColor=none;align=left;verticalAlign=top;spacingLeft=4;spacingRight=4;overflow=hidden;rotatable=0;points=[[0,0.5],[1,0.5]];portConstraint=eastwest;fontSize=50;" parent="3ZzalH3yHNWKxI1yRY4I-68" vertex="1">
          <mxGeometry y="72" width="650" height="268" as="geometry" />
        </mxCell>
        <mxCell id="3ZzalH3yHNWKxI1yRY4I-70" value="" style="line;strokeWidth=1;fillColor=none;align=left;verticalAlign=middle;spacingTop=-1;spacingLeft=3;spacingRight=3;rotatable=0;labelPosition=right;points=[];portConstraint=eastwest;fontSize=50;" parent="3ZzalH3yHNWKxI1yRY4I-68" vertex="1">
          <mxGeometry y="340" width="650" height="10" as="geometry" />
        </mxCell>
        <mxCell id="3ZzalH3yHNWKxI1yRY4I-71" style="edgeStyle=orthogonalEdgeStyle;rounded=0;orthogonalLoop=1;jettySize=auto;html=1;endArrow=diamond;endFill=0;entryX=0.75;entryY=1;entryDx=0;entryDy=0;exitX=0;exitY=0.25;exitDx=0;exitDy=0;fontSize=50;" parent="1" source="3ZzalH3yHNWKxI1yRY4I-72" target="3ZzalH3yHNWKxI1yRY4I-140" edge="1">
          <mxGeometry relative="1" as="geometry">
            <mxPoint x="-960" y="3033" as="targetPoint" />
            <mxPoint x="-210" y="3054" as="sourcePoint" />
          </mxGeometry>
        </mxCell>
        <mxCell id="3ZzalH3yHNWKxI1yRY4I-72" value="Gîtes larvaires" style="swimlane;fontStyle=1;align=center;verticalAlign=top;childLayout=stackLayout;horizontal=1;startSize=93;horizontalStack=0;resizeParent=1;resizeParentMax=0;resizeLast=0;collapsible=1;marginBottom=0;fillColor=#d5e8d4;strokeColor=#82b366;fontSize=50;" parent="1" vertex="1">
          <mxGeometry x="50" y="2810" width="690" height="750" as="geometry" />
        </mxCell>
        <mxCell id="3ZzalH3yHNWKxI1yRY4I-73" value="+ type: char&#xa;+ PH: real&#xa;+ t°: real&#xa;+ superficie: real&#xa;+ profondeur: real&#xa;+ largeur: real&#xa;+ débit: char&#xa;+ lat: real&#xa;+ long: real&#xa;+ ..." style="text;strokeColor=none;fillColor=none;align=left;verticalAlign=top;spacingLeft=4;spacingRight=4;overflow=hidden;rotatable=0;points=[[0,0.5],[1,0.5]];portConstraint=eastwest;fontSize=50;" parent="3ZzalH3yHNWKxI1yRY4I-72" vertex="1">
          <mxGeometry y="93" width="690" height="657" as="geometry" />
        </mxCell>
        <mxCell id="3ZzalH3yHNWKxI1yRY4I-75" style="edgeStyle=orthogonalEdgeStyle;rounded=0;orthogonalLoop=1;jettySize=auto;html=1;exitX=0;exitY=0.75;exitDx=0;exitDy=0;entryX=0.75;entryY=1;entryDx=0;entryDy=0;endArrow=none;endFill=0;fontSize=50;" parent="1" source="3ZzalH3yHNWKxI1yRY4I-80" target="3ZzalH3yHNWKxI1yRY4I-38" edge="1">
          <mxGeometry relative="1" as="geometry">
            <mxPoint x="821" y="3460" as="sourcePoint" />
          </mxGeometry>
        </mxCell>
        <mxCell id="3ZzalH3yHNWKxI1yRY4I-76" style="edgeStyle=orthogonalEdgeStyle;rounded=0;orthogonalLoop=1;jettySize=auto;html=1;exitX=0.5;exitY=0;exitDx=0;exitDy=0;endArrow=none;endFill=0;entryX=0;entryY=0.5;entryDx=0;entryDy=0;fontSize=50;strokeWidth=3;" parent="1" source="3ZzalH3yHNWKxI1yRY4I-80" target="3ZzalH3yHNWKxI1yRY4I-21" edge="1">
          <mxGeometry relative="1" as="geometry">
            <mxPoint x="1195" y="914" as="targetPoint" />
            <Array as="points">
              <mxPoint x="830" y="3421" />
              <mxPoint x="830" y="761" />
            </Array>
          </mxGeometry>
        </mxCell>
        <mxCell id="3ZzalH3yHNWKxI1yRY4I-77" value="Contribue &amp;gt;" style="edgeLabel;html=1;align=center;verticalAlign=middle;resizable=0;points=[];fontSize=50;" parent="3ZzalH3yHNWKxI1yRY4I-76" vertex="1" connectable="0">
          <mxGeometry x="-0.9485" relative="1" as="geometry">
            <mxPoint as="offset" />
          </mxGeometry>
        </mxCell>
        <mxCell id="3ZzalH3yHNWKxI1yRY4I-78" style="edgeStyle=orthogonalEdgeStyle;rounded=0;orthogonalLoop=1;jettySize=auto;html=1;exitX=0.25;exitY=0;exitDx=0;exitDy=0;entryX=0.75;entryY=1;entryDx=0;entryDy=0;startArrow=none;startFill=0;endArrow=none;endFill=0;fontSize=50;" parent="1" source="3ZzalH3yHNWKxI1yRY4I-80" target="3ZzalH3yHNWKxI1yRY4I-72" edge="1">
          <mxGeometry relative="1" as="geometry" />
        </mxCell>
        <mxCell id="3ZzalH3yHNWKxI1yRY4I-79" value="&amp;lt; Génère" style="edgeLabel;html=1;align=center;verticalAlign=middle;resizable=0;points=[];fontSize=50;" parent="3ZzalH3yHNWKxI1yRY4I-78" vertex="1" connectable="0">
          <mxGeometry x="0.4028" relative="1" as="geometry">
            <mxPoint x="-1" as="offset" />
          </mxGeometry>
        </mxCell>
        <mxCell id="3ZzalH3yHNWKxI1yRY4I-80" value="Activités humaines" style="swimlane;fontStyle=1;align=center;verticalAlign=top;childLayout=stackLayout;horizontal=1;startSize=26;horizontalStack=0;resizeParent=1;resizeParentMax=0;resizeLast=0;collapsible=1;marginBottom=0;fillColor=#ffe6cc;strokeColor=#d79b00;fontSize=50;" parent="1" vertex="1">
          <mxGeometry x="931" y="3864" width="160" height="34" as="geometry">
            <mxRectangle x="320" y="370" width="90" height="26" as="alternateBounds" />
          </mxGeometry>
        </mxCell>
        <mxCell id="3ZzalH3yHNWKxI1yRY4I-81" value="" style="line;strokeWidth=1;fillColor=none;align=left;verticalAlign=middle;spacingTop=-1;spacingLeft=3;spacingRight=3;rotatable=0;labelPosition=right;points=[];portConstraint=eastwest;fontSize=50;" parent="3ZzalH3yHNWKxI1yRY4I-80" vertex="1">
          <mxGeometry y="26" width="160" height="8" as="geometry" />
        </mxCell>
        <mxCell id="3ZzalH3yHNWKxI1yRY4I-82" value="&amp;lt; modifie" style="text;html=1;align=center;verticalAlign=middle;resizable=0;points=[];autosize=1;strokeColor=none;fillColor=none;fontSize=50;" parent="1" vertex="1">
          <mxGeometry x="-1060" y="3305" width="230" height="70" as="geometry" />
        </mxCell>
        <mxCell id="3ZzalH3yHNWKxI1yRY4I-83" style="edgeStyle=orthogonalEdgeStyle;rounded=0;orthogonalLoop=1;jettySize=auto;html=1;entryX=1;entryY=0.5;entryDx=0;entryDy=0;endArrow=none;endFill=0;fontSize=50;" parent="1" target="3ZzalH3yHNWKxI1yRY4I-39" edge="1">
          <mxGeometry relative="1" as="geometry">
            <mxPoint x="-1570" y="3468" as="sourcePoint" />
          </mxGeometry>
        </mxCell>
        <mxCell id="3ZzalH3yHNWKxI1yRY4I-84" value="&amp;lt; conditionne" style="text;html=1;align=center;verticalAlign=middle;resizable=0;points=[];autosize=1;strokeColor=none;fillColor=none;fontSize=50;" parent="1" vertex="1">
          <mxGeometry x="-1350" y="3314" width="320" height="70" as="geometry" />
        </mxCell>
        <mxCell id="3ZzalH3yHNWKxI1yRY4I-85" value="&amp;lt; modifie" style="text;html=1;align=center;verticalAlign=middle;resizable=0;points=[];autosize=1;strokeColor=none;fillColor=none;fontSize=50;" parent="1" vertex="1">
          <mxGeometry x="-1342" y="3516" width="230" height="70" as="geometry" />
        </mxCell>
        <mxCell id="3ZzalH3yHNWKxI1yRY4I-86" style="edgeStyle=orthogonalEdgeStyle;shape=connector;rounded=0;orthogonalLoop=1;jettySize=auto;html=1;entryX=0.5;entryY=0;entryDx=0;entryDy=0;labelBackgroundColor=default;fontFamily=Helvetica;fontSize=50;fontColor=default;endArrow=none;endFill=0;strokeColor=default;exitX=0.25;exitY=1;exitDx=0;exitDy=0;" parent="1" source="3ZzalH3yHNWKxI1yRY4I-38" target="3ZzalH3yHNWKxI1yRY4I-89" edge="1">
          <mxGeometry relative="1" as="geometry">
            <mxPoint x="-1400" y="3589" as="sourcePoint" />
          </mxGeometry>
        </mxCell>
        <mxCell id="3ZzalH3yHNWKxI1yRY4I-87" value="&amp;lt; classifié par" style="edgeLabel;html=1;align=center;verticalAlign=middle;resizable=0;points=[];fontSize=50;fontFamily=Helvetica;fontColor=default;" parent="3ZzalH3yHNWKxI1yRY4I-86" vertex="1" connectable="0">
          <mxGeometry x="0.2345" relative="1" as="geometry">
            <mxPoint x="25" y="-4" as="offset" />
          </mxGeometry>
        </mxCell>
        <mxCell id="3ZzalH3yHNWKxI1yRY4I-88" style="edgeStyle=orthogonalEdgeStyle;rounded=0;orthogonalLoop=1;jettySize=auto;html=1;exitX=0.25;exitY=0;exitDx=0;exitDy=0;endArrow=none;endFill=0;entryX=0;entryY=0.232;entryDx=0;entryDy=0;entryPerimeter=0;fontSize=50;startArrow=none;" parent="1" source="3ZzalH3yHNWKxI1yRY4I-198" target="3ZzalH3yHNWKxI1yRY4I-89" edge="1">
          <mxGeometry relative="1" as="geometry">
            <mxPoint x="-1530" y="3502" as="targetPoint" />
            <Array as="points">
              <mxPoint x="-1530" y="3472" />
              <mxPoint x="-1530" y="3512" />
            </Array>
          </mxGeometry>
        </mxCell>
        <mxCell id="3ZzalH3yHNWKxI1yRY4I-89" value="Type OS" style="swimlane;fontStyle=1;align=center;verticalAlign=top;childLayout=stackLayout;horizontal=1;startSize=69;horizontalStack=0;resizeParent=1;resizeParentMax=0;resizeLast=0;collapsible=1;marginBottom=0;fontSize=50;" parent="1" vertex="1">
          <mxGeometry x="-2140" y="3698" width="340" height="148" as="geometry" />
        </mxCell>
        <mxCell id="3ZzalH3yHNWKxI1yRY4I-90" value="+ label: char" style="text;strokeColor=none;fillColor=none;align=left;verticalAlign=top;spacingLeft=4;spacingRight=4;overflow=hidden;rotatable=0;points=[[0,0.5],[1,0.5]];portConstraint=eastwest;fontSize=50;" parent="3ZzalH3yHNWKxI1yRY4I-89" vertex="1">
          <mxGeometry y="69" width="340" height="71" as="geometry" />
        </mxCell>
        <mxCell id="3ZzalH3yHNWKxI1yRY4I-91" value="" style="line;strokeWidth=1;fillColor=none;align=left;verticalAlign=middle;spacingTop=-1;spacingLeft=3;spacingRight=3;rotatable=0;labelPosition=right;points=[];portConstraint=eastwest;fontSize=50;" parent="3ZzalH3yHNWKxI1yRY4I-89" vertex="1">
          <mxGeometry y="140" width="340" height="8" as="geometry" />
        </mxCell>
        <mxCell id="3ZzalH3yHNWKxI1yRY4I-92" style="edgeStyle=orthogonalEdgeStyle;shape=connector;rounded=0;orthogonalLoop=1;jettySize=auto;html=1;entryX=0.5;entryY=1;entryDx=0;entryDy=0;labelBackgroundColor=default;fontFamily=Helvetica;fontSize=50;fontColor=default;endArrow=open;endFill=0;strokeColor=default;dashed=1;dashPattern=1 1;strokeWidth=3;" parent="1" source="3ZzalH3yHNWKxI1yRY4I-93" target="3ZzalH3yHNWKxI1yRY4I-89" edge="1">
          <mxGeometry x="0.0257" y="-90" relative="1" as="geometry">
            <Array as="points">
              <mxPoint x="-1970" y="3688" />
              <mxPoint x="-1950" y="3688" />
            </Array>
            <mxPoint as="offset" />
          </mxGeometry>
        </mxCell>
        <mxCell id="3ZzalH3yHNWKxI1yRY4I-93" value="Veg" style="swimlane;fontStyle=4;childLayout=stackLayout;horizontal=1;startSize=71;fillColor=none;horizontalStack=0;resizeParent=1;resizeParentMax=0;resizeLast=0;collapsible=1;marginBottom=0;fontFamily=Helvetica;fontSize=50;fontColor=default;" parent="1" vertex="1">
          <mxGeometry x="-2180" y="3776" width="420" height="160" as="geometry">
            <mxRectangle x="610" y="510" width="40" height="26" as="alternateBounds" />
          </mxGeometry>
        </mxCell>
        <mxCell id="3ZzalH3yHNWKxI1yRY4I-94" value="label=&quot;Végétation&quot;" style="text;strokeColor=none;fillColor=none;align=left;verticalAlign=top;spacingLeft=4;spacingRight=4;overflow=hidden;rotatable=0;points=[[0,0.5],[1,0.5]];portConstraint=eastwest;fontFamily=Helvetica;fontSize=50;fontColor=default;" parent="3ZzalH3yHNWKxI1yRY4I-93" vertex="1">
          <mxGeometry y="71" width="420" height="89" as="geometry" />
        </mxCell>
        <mxCell id="3ZzalH3yHNWKxI1yRY4I-95" style="edgeStyle=orthogonalEdgeStyle;shape=connector;rounded=0;orthogonalLoop=1;jettySize=auto;html=1;labelBackgroundColor=default;fontFamily=Helvetica;fontSize=50;fontColor=default;endArrow=open;endFill=0;strokeColor=default;dashed=1;dashPattern=1 1;strokeWidth=3;exitX=0.5;exitY=0;exitDx=0;exitDy=0;" parent="1" source="3ZzalH3yHNWKxI1yRY4I-96" edge="1">
          <mxGeometry relative="1" as="geometry">
            <mxPoint x="-1810" y="3658" as="targetPoint" />
          </mxGeometry>
        </mxCell>
        <mxCell id="3ZzalH3yHNWKxI1yRY4I-96" value="Urb" style="swimlane;fontStyle=4;childLayout=stackLayout;horizontal=1;startSize=71;fillColor=none;horizontalStack=0;resizeParent=1;resizeParentMax=0;resizeLast=0;collapsible=1;marginBottom=0;fontFamily=Helvetica;fontSize=50;fontColor=default;" parent="1" vertex="1">
          <mxGeometry x="-1690" y="3776" width="330" height="145" as="geometry">
            <mxRectangle x="610" y="510" width="40" height="26" as="alternateBounds" />
          </mxGeometry>
        </mxCell>
        <mxCell id="3ZzalH3yHNWKxI1yRY4I-97" value="label=&quot;Urbain&quot;" style="text;strokeColor=none;fillColor=none;align=left;verticalAlign=top;spacingLeft=4;spacingRight=4;overflow=hidden;rotatable=0;points=[[0,0.5],[1,0.5]];portConstraint=eastwest;fontFamily=Helvetica;fontSize=50;fontColor=default;" parent="3ZzalH3yHNWKxI1yRY4I-96" vertex="1">
          <mxGeometry y="71" width="330" height="74" as="geometry" />
        </mxCell>
        <mxCell id="3ZzalH3yHNWKxI1yRY4I-136" style="edgeStyle=orthogonalEdgeStyle;rounded=0;orthogonalLoop=1;jettySize=auto;html=1;endArrow=none;endFill=0;entryX=0.5;entryY=1;entryDx=0;entryDy=0;exitX=0.75;exitY=0;exitDx=0;exitDy=0;fontSize=50;" parent="1" source="3ZzalH3yHNWKxI1yRY4I-183" target="3ZzalH3yHNWKxI1yRY4I-215" edge="1">
          <mxGeometry relative="1" as="geometry">
            <mxPoint x="-370" y="1664" as="targetPoint" />
          </mxGeometry>
        </mxCell>
        <mxCell id="3ZzalH3yHNWKxI1yRY4I-137" value="Permet&amp;nbsp; la vie et la reproduction &amp;gt;" style="edgeLabel;html=1;align=center;verticalAlign=middle;resizable=0;points=[];fontSize=50;" parent="3ZzalH3yHNWKxI1yRY4I-136" vertex="1" connectable="0">
          <mxGeometry x="-0.2769" y="4" relative="1" as="geometry">
            <mxPoint x="379" y="4" as="offset" />
          </mxGeometry>
        </mxCell>
        <mxCell id="3ZzalH3yHNWKxI1yRY4I-138" style="edgeStyle=orthogonalEdgeStyle;rounded=0;orthogonalLoop=1;jettySize=auto;html=1;exitX=0.5;exitY=0;exitDx=0;exitDy=0;entryX=0.25;entryY=1;entryDx=0;entryDy=0;endArrow=block;endFill=0;fontSize=50;" parent="1" source="3ZzalH3yHNWKxI1yRY4I-140" target="3ZzalH3yHNWKxI1yRY4I-183" edge="1">
          <mxGeometry relative="1" as="geometry">
            <mxPoint x="-350" y="2684" as="targetPoint" />
          </mxGeometry>
        </mxCell>
        <mxCell id="3ZzalH3yHNWKxI1yRY4I-139" style="edgeStyle=orthogonalEdgeStyle;rounded=0;orthogonalLoop=1;jettySize=auto;html=1;exitX=1;exitY=0.5;exitDx=0;exitDy=0;endArrow=none;endFill=0;entryX=0.5;entryY=1;entryDx=0;entryDy=0;fontSize=50;strokeWidth=3;" parent="1" source="3ZzalH3yHNWKxI1yRY4I-184" target="3ZzalH3yHNWKxI1yRY4I-165" edge="1">
          <mxGeometry relative="1" as="geometry">
            <mxPoint x="1250" y="1596" as="targetPoint" />
          </mxGeometry>
        </mxCell>
        <mxCell id="3ZzalH3yHNWKxI1yRY4I-140" value="Environnement (composantes abiotiques)" style="swimlane;fontStyle=1;align=center;verticalAlign=top;childLayout=stackLayout;horizontal=1;startSize=26;horizontalStack=0;resizeParent=1;resizeParentMax=0;resizeLast=0;collapsible=1;marginBottom=0;fillColor=#d5e8d4;strokeColor=#82b366;fontSize=50;" parent="1" vertex="1">
          <mxGeometry x="-1190" y="2923" width="250" height="60" as="geometry">
            <mxRectangle x="320" y="370" width="90" height="26" as="alternateBounds" />
          </mxGeometry>
        </mxCell>
        <mxCell id="3ZzalH3yHNWKxI1yRY4I-141" value="+ ..." style="text;strokeColor=none;fillColor=none;align=left;verticalAlign=top;spacingLeft=4;spacingRight=4;overflow=hidden;rotatable=0;points=[[0,0.5],[1,0.5]];portConstraint=eastwest;fontSize=50;" parent="3ZzalH3yHNWKxI1yRY4I-140" vertex="1">
          <mxGeometry y="26" width="250" height="26" as="geometry" />
        </mxCell>
        <mxCell id="3ZzalH3yHNWKxI1yRY4I-142" value="" style="line;strokeWidth=1;fillColor=none;align=left;verticalAlign=middle;spacingTop=-1;spacingLeft=3;spacingRight=3;rotatable=0;labelPosition=right;points=[];portConstraint=eastwest;fontSize=50;" parent="3ZzalH3yHNWKxI1yRY4I-140" vertex="1">
          <mxGeometry y="52" width="250" height="8" as="geometry" />
        </mxCell>
        <mxCell id="3ZzalH3yHNWKxI1yRY4I-143" style="edgeStyle=orthogonalEdgeStyle;rounded=0;orthogonalLoop=1;jettySize=auto;html=1;exitX=0.5;exitY=0;exitDx=0;exitDy=0;entryX=0;entryY=0.5;entryDx=0;entryDy=0;endArrow=diamond;endFill=0;fontSize=50;" parent="1" source="3ZzalH3yHNWKxI1yRY4I-144" target="3ZzalH3yHNWKxI1yRY4I-141" edge="1">
          <mxGeometry relative="1" as="geometry" />
        </mxCell>
        <mxCell id="3ZzalH3yHNWKxI1yRY4I-144" value="Paysage" style="swimlane;fontStyle=1;align=center;verticalAlign=top;childLayout=stackLayout;horizontal=1;startSize=26;horizontalStack=0;resizeParent=1;resizeParentMax=0;resizeLast=0;collapsible=1;marginBottom=0;fillColor=#d5e8d4;strokeColor=#82b366;fontSize=50;" parent="1" vertex="1">
          <mxGeometry x="-1738" y="3200" width="170" height="60" as="geometry">
            <mxRectangle x="320" y="370" width="90" height="26" as="alternateBounds" />
          </mxGeometry>
        </mxCell>
        <mxCell id="3ZzalH3yHNWKxI1yRY4I-145" value="+ &quot;susceptibilité&quot; à l&#39;exposition" style="text;strokeColor=none;fillColor=none;align=left;verticalAlign=top;spacingLeft=4;spacingRight=4;overflow=hidden;rotatable=0;points=[[0,0.5],[1,0.5]];portConstraint=eastwest;fontSize=50;" parent="3ZzalH3yHNWKxI1yRY4I-144" vertex="1">
          <mxGeometry y="26" width="170" height="26" as="geometry" />
        </mxCell>
        <mxCell id="3ZzalH3yHNWKxI1yRY4I-146" value="" style="line;strokeWidth=1;fillColor=none;align=left;verticalAlign=middle;spacingTop=-1;spacingLeft=3;spacingRight=3;rotatable=0;labelPosition=right;points=[];portConstraint=eastwest;fontSize=50;" parent="3ZzalH3yHNWKxI1yRY4I-144" vertex="1">
          <mxGeometry y="52" width="170" height="8" as="geometry" />
        </mxCell>
        <mxCell id="3ZzalH3yHNWKxI1yRY4I-147" style="edgeStyle=orthogonalEdgeStyle;rounded=0;orthogonalLoop=1;jettySize=auto;html=1;exitX=0.25;exitY=0;exitDx=0;exitDy=0;entryX=0.75;entryY=1;entryDx=0;entryDy=0;endArrow=diamond;endFill=0;fontSize=50;" parent="1" source="3ZzalH3yHNWKxI1yRY4I-38" target="3ZzalH3yHNWKxI1yRY4I-144" edge="1">
          <mxGeometry relative="1" as="geometry" />
        </mxCell>
        <mxCell id="3ZzalH3yHNWKxI1yRY4I-148" style="edgeStyle=orthogonalEdgeStyle;rounded=0;orthogonalLoop=1;jettySize=auto;html=1;exitX=0.5;exitY=0;exitDx=0;exitDy=0;entryX=0.25;entryY=1;entryDx=0;entryDy=0;endArrow=diamond;endFill=0;fontSize=50;" parent="1" source="3ZzalH3yHNWKxI1yRY4I-150" target="3ZzalH3yHNWKxI1yRY4I-144" edge="1">
          <mxGeometry relative="1" as="geometry" />
        </mxCell>
        <mxCell id="3ZzalH3yHNWKxI1yRY4I-149" style="edgeStyle=orthogonalEdgeStyle;rounded=0;orthogonalLoop=1;jettySize=auto;html=1;exitX=0.5;exitY=1;exitDx=0;exitDy=0;entryX=0.5;entryY=1;entryDx=0;entryDy=0;endArrow=none;endFill=0;fontSize=50;" parent="1" source="3ZzalH3yHNWKxI1yRY4I-150" target="3ZzalH3yHNWKxI1yRY4I-72" edge="1">
          <mxGeometry relative="1" as="geometry">
            <Array as="points">
              <mxPoint x="-930" y="3774" />
              <mxPoint x="395" y="3774" />
            </Array>
          </mxGeometry>
        </mxCell>
        <mxCell id="3ZzalH3yHNWKxI1yRY4I-150" value="Relief" style="swimlane;fontStyle=1;align=center;verticalAlign=top;childLayout=stackLayout;horizontal=1;startSize=26;horizontalStack=0;resizeParent=1;resizeParentMax=0;resizeLast=0;collapsible=1;marginBottom=0;fillColor=#d5e8d4;strokeColor=#82b366;fontSize=50;" parent="1" vertex="1">
          <mxGeometry x="-1920" y="3319" width="160" height="60" as="geometry">
            <mxRectangle x="320" y="370" width="90" height="26" as="alternateBounds" />
          </mxGeometry>
        </mxCell>
        <mxCell id="3ZzalH3yHNWKxI1yRY4I-151" value="+ ..." style="text;strokeColor=none;fillColor=none;align=left;verticalAlign=top;spacingLeft=4;spacingRight=4;overflow=hidden;rotatable=0;points=[[0,0.5],[1,0.5]];portConstraint=eastwest;fontSize=50;" parent="3ZzalH3yHNWKxI1yRY4I-150" vertex="1">
          <mxGeometry y="26" width="160" height="26" as="geometry" />
        </mxCell>
        <mxCell id="3ZzalH3yHNWKxI1yRY4I-152" value="" style="line;strokeWidth=1;fillColor=none;align=left;verticalAlign=middle;spacingTop=-1;spacingLeft=3;spacingRight=3;rotatable=0;labelPosition=right;points=[];portConstraint=eastwest;fontSize=50;" parent="3ZzalH3yHNWKxI1yRY4I-150" vertex="1">
          <mxGeometry y="52" width="160" height="8" as="geometry" />
        </mxCell>
        <mxCell id="3ZzalH3yHNWKxI1yRY4I-153" value="Ressource trophique" style="swimlane;fontStyle=1;align=center;verticalAlign=top;childLayout=stackLayout;horizontal=1;startSize=26;horizontalStack=0;resizeParent=1;resizeParentMax=0;resizeLast=0;collapsible=1;marginBottom=0;fillColor=#d5e8d4;strokeColor=#82b366;fontSize=50;" parent="1" vertex="1">
          <mxGeometry x="-421" y="2979" width="140" height="60" as="geometry">
            <mxRectangle x="320" y="370" width="90" height="26" as="alternateBounds" />
          </mxGeometry>
        </mxCell>
        <mxCell id="3ZzalH3yHNWKxI1yRY4I-154" value="+ ..." style="text;strokeColor=none;fillColor=none;align=left;verticalAlign=top;spacingLeft=4;spacingRight=4;overflow=hidden;rotatable=0;points=[[0,0.5],[1,0.5]];portConstraint=eastwest;fontSize=50;" parent="3ZzalH3yHNWKxI1yRY4I-153" vertex="1">
          <mxGeometry y="26" width="140" height="26" as="geometry" />
        </mxCell>
        <mxCell id="3ZzalH3yHNWKxI1yRY4I-155" value="" style="line;strokeWidth=1;fillColor=none;align=left;verticalAlign=middle;spacingTop=-1;spacingLeft=3;spacingRight=3;rotatable=0;labelPosition=right;points=[];portConstraint=eastwest;fontSize=50;" parent="3ZzalH3yHNWKxI1yRY4I-153" vertex="1">
          <mxGeometry y="52" width="140" height="8" as="geometry" />
        </mxCell>
        <mxCell id="3ZzalH3yHNWKxI1yRY4I-156" style="edgeStyle=orthogonalEdgeStyle;rounded=0;orthogonalLoop=1;jettySize=auto;html=1;entryX=1;entryY=0.5;entryDx=0;entryDy=0;endArrow=block;endFill=0;exitX=0.5;exitY=1;exitDx=0;exitDy=0;fontSize=50;strokeWidth=3;" parent="1" source="ZHWQrGtpnkybYDUMCbcR-1" target="3ZzalH3yHNWKxI1yRY4I-80" edge="1">
          <mxGeometry relative="1" as="geometry">
            <mxPoint x="1660" y="1990" as="sourcePoint" />
          </mxGeometry>
        </mxCell>
        <mxCell id="3ZzalH3yHNWKxI1yRY4I-157" style="edgeStyle=orthogonalEdgeStyle;rounded=0;orthogonalLoop=1;jettySize=auto;html=1;exitX=0;exitY=0.25;exitDx=0;exitDy=0;entryX=1;entryY=0.5;entryDx=0;entryDy=0;endArrow=none;endFill=0;fontSize=50;" parent="1" source="3ZzalH3yHNWKxI1yRY4I-158" target="3ZzalH3yHNWKxI1yRY4I-47" edge="1">
          <mxGeometry relative="1" as="geometry" />
        </mxCell>
        <mxCell id="3ZzalH3yHNWKxI1yRY4I-158" value="Changement climatique" style="swimlane;fontStyle=1;align=center;verticalAlign=top;childLayout=stackLayout;horizontal=1;startSize=26;horizontalStack=0;resizeParent=1;resizeParentMax=0;resizeLast=0;collapsible=1;marginBottom=0;fillColor=#d5e8d4;strokeColor=#82b366;fontSize=50;" parent="1" vertex="1">
          <mxGeometry x="-899" y="3342" width="160" height="60" as="geometry">
            <mxRectangle x="320" y="370" width="90" height="26" as="alternateBounds" />
          </mxGeometry>
        </mxCell>
        <mxCell id="3ZzalH3yHNWKxI1yRY4I-159" value="+ ..." style="text;strokeColor=none;fillColor=none;align=left;verticalAlign=top;spacingLeft=4;spacingRight=4;overflow=hidden;rotatable=0;points=[[0,0.5],[1,0.5]];portConstraint=eastwest;fontSize=50;" parent="3ZzalH3yHNWKxI1yRY4I-158" vertex="1">
          <mxGeometry y="26" width="160" height="26" as="geometry" />
        </mxCell>
        <mxCell id="3ZzalH3yHNWKxI1yRY4I-160" value="" style="line;strokeWidth=1;fillColor=none;align=left;verticalAlign=middle;spacingTop=-1;spacingLeft=3;spacingRight=3;rotatable=0;labelPosition=right;points=[];portConstraint=eastwest;fontSize=50;" parent="3ZzalH3yHNWKxI1yRY4I-158" vertex="1">
          <mxGeometry y="52" width="160" height="8" as="geometry" />
        </mxCell>
        <mxCell id="3ZzalH3yHNWKxI1yRY4I-161" style="edgeStyle=orthogonalEdgeStyle;rounded=0;orthogonalLoop=1;jettySize=auto;html=1;exitX=0;exitY=0.5;exitDx=0;exitDy=0;endArrow=none;endFill=0;fontSize=50;" parent="1" source="3ZzalH3yHNWKxI1yRY4I-159" edge="1">
          <mxGeometry relative="1" as="geometry">
            <mxPoint x="-900.0689655172409" y="3373.068965517242" as="targetPoint" />
          </mxGeometry>
        </mxCell>
        <mxCell id="3ZzalH3yHNWKxI1yRY4I-162" style="edgeStyle=orthogonalEdgeStyle;rounded=0;orthogonalLoop=1;jettySize=auto;html=1;entryX=1;entryY=0.25;entryDx=0;entryDy=0;endArrow=none;endFill=0;startArrow=none;fontSize=50;" parent="1" source="3ZzalH3yHNWKxI1yRY4I-232" target="3ZzalH3yHNWKxI1yRY4I-42" edge="1">
          <mxGeometry relative="1" as="geometry" />
        </mxCell>
        <mxCell id="3ZzalH3yHNWKxI1yRY4I-163" style="edgeStyle=orthogonalEdgeStyle;rounded=0;orthogonalLoop=1;jettySize=auto;html=1;entryX=1;entryY=0.5;entryDx=0;entryDy=0;endArrow=none;endFill=0;exitX=0.5;exitY=0;exitDx=0;exitDy=0;fontSize=50;strokeWidth=3;" parent="1" target="3ZzalH3yHNWKxI1yRY4I-21" edge="1">
          <mxGeometry relative="1" as="geometry">
            <mxPoint x="1350.0000000000002" y="819.5239999999999" as="targetPoint" />
            <mxPoint x="1527.2" y="1092.4999999999995" as="sourcePoint" />
            <Array as="points">
              <mxPoint x="1527" y="850" />
              <mxPoint x="1400" y="850" />
              <mxPoint x="1400" y="761" />
            </Array>
          </mxGeometry>
        </mxCell>
        <mxCell id="3ZzalH3yHNWKxI1yRY4I-164" value="&amp;lt; Contribue" style="edgeLabel;html=1;align=center;verticalAlign=middle;resizable=0;points=[];fontSize=50;" parent="3ZzalH3yHNWKxI1yRY4I-163" vertex="1" connectable="0">
          <mxGeometry x="-0.1123" relative="1" as="geometry">
            <mxPoint as="offset" />
          </mxGeometry>
        </mxCell>
        <mxCell id="3ZzalH3yHNWKxI1yRY4I-165" value="Lieu" style="swimlane;fontStyle=1;align=center;verticalAlign=top;childLayout=stackLayout;horizontal=1;startSize=59;horizontalStack=0;resizeParent=1;resizeParentMax=0;resizeLast=0;collapsible=1;marginBottom=0;fillColor=#eeeeee;strokeColor=#36393d;fontSize=50;" parent="1" vertex="1">
          <mxGeometry x="1310" y="1010" width="440" height="188" as="geometry">
            <mxRectangle x="600" y="310" width="90" height="26" as="alternateBounds" />
          </mxGeometry>
        </mxCell>
        <mxCell id="3ZzalH3yHNWKxI1yRY4I-166" value="+ nom: char&#xa;+ lat: real&#xa;+ long: real&#xa;+ susceptibilité à l&#39;exposition" style="text;strokeColor=none;fillColor=none;align=left;verticalAlign=top;spacingLeft=4;spacingRight=4;overflow=hidden;rotatable=0;points=[[0,0.5],[1,0.5]];portConstraint=eastwest;fontSize=50;" parent="3ZzalH3yHNWKxI1yRY4I-165" vertex="1">
          <mxGeometry y="59" width="440" height="121" as="geometry" />
        </mxCell>
        <mxCell id="3ZzalH3yHNWKxI1yRY4I-167" value="" style="line;strokeWidth=1;fillColor=none;align=left;verticalAlign=middle;spacingTop=-1;spacingLeft=3;spacingRight=3;rotatable=0;labelPosition=right;points=[];portConstraint=eastwest;fontSize=50;" parent="3ZzalH3yHNWKxI1yRY4I-165" vertex="1">
          <mxGeometry y="180" width="440" height="8" as="geometry" />
        </mxCell>
        <mxCell id="3ZzalH3yHNWKxI1yRY4I-168" style="edgeStyle=orthogonalEdgeStyle;rounded=0;orthogonalLoop=1;jettySize=auto;html=1;entryX=0.5;entryY=1;entryDx=0;entryDy=0;endArrow=none;endFill=0;fontSize=50;" parent="1" source="3ZzalH3yHNWKxI1yRY4I-170" target="3ZzalH3yHNWKxI1yRY4I-80" edge="1">
          <mxGeometry relative="1" as="geometry" />
        </mxCell>
        <mxCell id="3ZzalH3yHNWKxI1yRY4I-169" value="Type activité" style="swimlane;fontStyle=1;align=center;verticalAlign=top;childLayout=stackLayout;horizontal=1;startSize=60;horizontalStack=0;resizeParent=1;resizeParentMax=0;resizeLast=0;collapsible=1;marginBottom=0;fontSize=50;" parent="1" vertex="1">
          <mxGeometry x="961" y="3974" width="399" height="178" as="geometry">
            <mxRectangle x="320" y="370" width="90" height="26" as="alternateBounds" />
          </mxGeometry>
        </mxCell>
        <mxCell id="3ZzalH3yHNWKxI1yRY4I-170" value="+ label: char" style="text;strokeColor=none;fillColor=none;align=left;verticalAlign=top;spacingLeft=4;spacingRight=4;overflow=hidden;rotatable=0;points=[[0,0.5],[1,0.5]];portConstraint=eastwest;fontSize=50;" parent="3ZzalH3yHNWKxI1yRY4I-169" vertex="1">
          <mxGeometry y="60" width="399" height="110" as="geometry" />
        </mxCell>
        <mxCell id="3ZzalH3yHNWKxI1yRY4I-171" value="" style="line;strokeWidth=1;fillColor=none;align=left;verticalAlign=middle;spacingTop=-1;spacingLeft=3;spacingRight=3;rotatable=0;labelPosition=right;points=[];portConstraint=eastwest;fontSize=50;" parent="3ZzalH3yHNWKxI1yRY4I-169" vertex="1">
          <mxGeometry y="170" width="399" height="8" as="geometry" />
        </mxCell>
        <mxCell id="3ZzalH3yHNWKxI1yRY4I-181" style="edgeStyle=orthogonalEdgeStyle;rounded=0;orthogonalLoop=1;jettySize=auto;html=1;entryX=0.75;entryY=1;entryDx=0;entryDy=0;endArrow=none;endFill=0;exitX=1;exitY=0.25;exitDx=0;exitDy=0;fontSize=50;strokeWidth=3;" parent="1" source="3ZzalH3yHNWKxI1yRY4I-80" target="3ZzalH3yHNWKxI1yRY4I-165" edge="1">
          <mxGeometry relative="1" as="geometry" />
        </mxCell>
        <mxCell id="3ZzalH3yHNWKxI1yRY4I-182" style="edgeStyle=orthogonalEdgeStyle;rounded=0;orthogonalLoop=1;jettySize=auto;html=1;exitX=0.25;exitY=0;exitDx=0;exitDy=0;entryX=0.5;entryY=1;entryDx=0;entryDy=0;endArrow=diamond;endFill=0;fontSize=50;strokeWidth=3;startSize=6;endSize=11;" parent="1" source="3ZzalH3yHNWKxI1yRY4I-183" target="3ZzalH3yHNWKxI1yRY4I-209" edge="1">
          <mxGeometry relative="1" as="geometry" />
        </mxCell>
        <mxCell id="3ZzalH3yHNWKxI1yRY4I-183" value="Habitat" style="swimlane;fontStyle=1;align=center;verticalAlign=top;childLayout=stackLayout;horizontal=1;startSize=70;horizontalStack=0;resizeParent=1;resizeParentMax=0;resizeLast=0;collapsible=1;marginBottom=0;fillColor=#d5e8d4;strokeColor=#82b366;fontSize=50;" parent="1" vertex="1">
          <mxGeometry x="-630" y="2620" width="450" height="170" as="geometry">
            <mxRectangle x="320" y="370" width="90" height="26" as="alternateBounds" />
          </mxGeometry>
        </mxCell>
        <mxCell id="3ZzalH3yHNWKxI1yRY4I-184" value="+ qualité: real" style="text;strokeColor=none;fillColor=none;align=left;verticalAlign=top;spacingLeft=4;spacingRight=4;overflow=hidden;rotatable=0;points=[[0,0.5],[1,0.5]];portConstraint=eastwest;fontSize=50;" parent="3ZzalH3yHNWKxI1yRY4I-183" vertex="1">
          <mxGeometry y="70" width="450" height="80" as="geometry" />
        </mxCell>
        <mxCell id="3ZzalH3yHNWKxI1yRY4I-185" value="" style="line;strokeWidth=1;fillColor=none;align=left;verticalAlign=middle;spacingTop=-1;spacingLeft=3;spacingRight=3;rotatable=0;labelPosition=right;points=[];portConstraint=eastwest;fontSize=50;" parent="3ZzalH3yHNWKxI1yRY4I-183" vertex="1">
          <mxGeometry y="150" width="450" height="20" as="geometry" />
        </mxCell>
        <mxCell id="3ZzalH3yHNWKxI1yRY4I-186" style="edgeStyle=orthogonalEdgeStyle;rounded=0;orthogonalLoop=1;jettySize=auto;html=1;endArrow=block;endFill=0;entryX=0.75;entryY=1;entryDx=0;entryDy=0;exitX=0.5;exitY=0;exitDx=0;exitDy=0;fontSize=50;" parent="1" source="3ZzalH3yHNWKxI1yRY4I-187" target="3ZzalH3yHNWKxI1yRY4I-183" edge="1">
          <mxGeometry relative="1" as="geometry">
            <mxPoint x="-270" y="2684" as="targetPoint" />
          </mxGeometry>
        </mxCell>
        <mxCell id="3ZzalH3yHNWKxI1yRY4I-187" value="Composantes biotiques" style="swimlane;fontStyle=1;align=center;verticalAlign=top;childLayout=stackLayout;horizontal=1;startSize=26;horizontalStack=0;resizeParent=1;resizeParentMax=0;resizeLast=0;collapsible=1;marginBottom=0;fillColor=#d5e8d4;strokeColor=#82b366;fontSize=50;" parent="1" vertex="1">
          <mxGeometry x="-780" y="2923" width="160" height="60" as="geometry">
            <mxRectangle x="320" y="370" width="90" height="26" as="alternateBounds" />
          </mxGeometry>
        </mxCell>
        <mxCell id="3ZzalH3yHNWKxI1yRY4I-188" value="+ ..." style="text;strokeColor=none;fillColor=none;align=left;verticalAlign=top;spacingLeft=4;spacingRight=4;overflow=hidden;rotatable=0;points=[[0,0.5],[1,0.5]];portConstraint=eastwest;fontSize=50;" parent="3ZzalH3yHNWKxI1yRY4I-187" vertex="1">
          <mxGeometry y="26" width="160" height="26" as="geometry" />
        </mxCell>
        <mxCell id="3ZzalH3yHNWKxI1yRY4I-189" value="" style="line;strokeWidth=1;fillColor=none;align=left;verticalAlign=middle;spacingTop=-1;spacingLeft=3;spacingRight=3;rotatable=0;labelPosition=right;points=[];portConstraint=eastwest;fontSize=50;" parent="3ZzalH3yHNWKxI1yRY4I-187" vertex="1">
          <mxGeometry y="52" width="160" height="8" as="geometry" />
        </mxCell>
        <mxCell id="3ZzalH3yHNWKxI1yRY4I-190" style="edgeStyle=orthogonalEdgeStyle;rounded=0;orthogonalLoop=1;jettySize=auto;html=1;entryX=0.75;entryY=1;entryDx=0;entryDy=0;endArrow=diamond;endFill=0;fontSize=50;" parent="1" source="3ZzalH3yHNWKxI1yRY4I-154" target="3ZzalH3yHNWKxI1yRY4I-187" edge="1">
          <mxGeometry relative="1" as="geometry" />
        </mxCell>
        <mxCell id="3ZzalH3yHNWKxI1yRY4I-191" style="edgeStyle=orthogonalEdgeStyle;rounded=0;orthogonalLoop=1;jettySize=auto;html=1;exitX=0.5;exitY=0;exitDx=0;exitDy=0;entryX=0.25;entryY=1;entryDx=0;entryDy=0;endArrow=diamond;endFill=0;fontSize=50;" parent="1" source="3ZzalH3yHNWKxI1yRY4I-192" target="3ZzalH3yHNWKxI1yRY4I-187" edge="1">
          <mxGeometry relative="1" as="geometry" />
        </mxCell>
        <mxCell id="3ZzalH3yHNWKxI1yRY4I-192" value="Prédateur" style="swimlane;fontStyle=1;align=center;verticalAlign=top;childLayout=stackLayout;horizontal=1;startSize=26;horizontalStack=0;resizeParent=1;resizeParentMax=0;resizeLast=0;collapsible=1;marginBottom=0;fillColor=#d5e8d4;strokeColor=#82b366;fontSize=50;" parent="1" vertex="1">
          <mxGeometry x="-877" y="3023" width="140" height="60" as="geometry">
            <mxRectangle x="320" y="370" width="90" height="26" as="alternateBounds" />
          </mxGeometry>
        </mxCell>
        <mxCell id="3ZzalH3yHNWKxI1yRY4I-193" value="+ ..." style="text;strokeColor=none;fillColor=none;align=left;verticalAlign=top;spacingLeft=4;spacingRight=4;overflow=hidden;rotatable=0;points=[[0,0.5],[1,0.5]];portConstraint=eastwest;fontSize=50;" parent="3ZzalH3yHNWKxI1yRY4I-192" vertex="1">
          <mxGeometry y="26" width="140" height="26" as="geometry" />
        </mxCell>
        <mxCell id="3ZzalH3yHNWKxI1yRY4I-194" value="" style="line;strokeWidth=1;fillColor=none;align=left;verticalAlign=middle;spacingTop=-1;spacingLeft=3;spacingRight=3;rotatable=0;labelPosition=right;points=[];portConstraint=eastwest;fontSize=50;" parent="3ZzalH3yHNWKxI1yRY4I-192" vertex="1">
          <mxGeometry y="52" width="140" height="8" as="geometry" />
        </mxCell>
        <mxCell id="3ZzalH3yHNWKxI1yRY4I-195" style="edgeStyle=orthogonalEdgeStyle;rounded=0;orthogonalLoop=1;jettySize=auto;html=1;exitX=0.5;exitY=1;exitDx=0;exitDy=0;entryX=0.5;entryY=0;entryDx=0;entryDy=0;endArrow=none;endFill=0;dashed=1;fontSize=50;strokeWidth=3;endSize=7;" parent="1" source="3ZzalH3yHNWKxI1yRY4I-196" target="3ZzalH3yHNWKxI1yRY4I-23" edge="1">
          <mxGeometry relative="1" as="geometry">
            <mxPoint x="1050" y="436.00000000000045" as="targetPoint" />
          </mxGeometry>
        </mxCell>
        <mxCell id="3ZzalH3yHNWKxI1yRY4I-196" value="Risque de rencontre humain-vecteur" style="swimlane;fontStyle=1;align=center;verticalAlign=top;childLayout=stackLayout;horizontal=1;startSize=80;horizontalStack=0;resizeParent=1;resizeParentMax=0;resizeLast=0;collapsible=1;marginBottom=0;fillColor=#f8cecc;strokeColor=#b85450;fontSize=50;" parent="1" vertex="1">
          <mxGeometry x="628" y="220" width="920" height="110" as="geometry" />
        </mxCell>
        <mxCell id="3ZzalH3yHNWKxI1yRY4I-197" value="" style="line;strokeWidth=1;fillColor=none;align=left;verticalAlign=middle;spacingTop=-1;spacingLeft=3;spacingRight=3;rotatable=0;labelPosition=right;points=[];portConstraint=eastwest;fontSize=50;" parent="3ZzalH3yHNWKxI1yRY4I-196" vertex="1">
          <mxGeometry y="80" width="920" height="30" as="geometry" />
        </mxCell>
        <mxCell id="3ZzalH3yHNWKxI1yRY4I-208" style="edgeStyle=orthogonalEdgeStyle;rounded=0;orthogonalLoop=1;jettySize=auto;html=1;endArrow=block;endFill=0;entryX=0.5;entryY=0;entryDx=0;entryDy=0;exitX=0.5;exitY=1;exitDx=0;exitDy=0;fontSize=50;strokeWidth=3;" parent="1" source="ZHWQrGtpnkybYDUMCbcR-4" target="ZHWQrGtpnkybYDUMCbcR-1" edge="1">
          <mxGeometry relative="1" as="geometry">
            <mxPoint x="1630.000000000001" y="630" as="sourcePoint" />
            <mxPoint x="1650.000000000001" y="1737" as="targetPoint" />
          </mxGeometry>
        </mxCell>
        <mxCell id="3ZzalH3yHNWKxI1yRY4I-209" value="Ecosystème" style="swimlane;fontStyle=1;align=center;verticalAlign=top;childLayout=stackLayout;horizontal=1;startSize=76;horizontalStack=0;resizeParent=1;resizeParentMax=0;resizeLast=0;collapsible=1;marginBottom=0;fillColor=#d5e8d4;strokeColor=#82b366;fontSize=50;" parent="1" vertex="1">
          <mxGeometry x="-700" y="2424" width="360" height="148" as="geometry">
            <mxRectangle x="320" y="370" width="90" height="26" as="alternateBounds" />
          </mxGeometry>
        </mxCell>
        <mxCell id="3ZzalH3yHNWKxI1yRY4I-210" value="+ ..." style="text;strokeColor=none;fillColor=none;align=left;verticalAlign=top;spacingLeft=4;spacingRight=4;overflow=hidden;rotatable=0;points=[[0,0.5],[1,0.5]];portConstraint=eastwest;fontSize=50;" parent="3ZzalH3yHNWKxI1yRY4I-209" vertex="1">
          <mxGeometry y="76" width="360" height="64" as="geometry" />
        </mxCell>
        <mxCell id="3ZzalH3yHNWKxI1yRY4I-211" value="" style="line;strokeWidth=1;fillColor=none;align=left;verticalAlign=middle;spacingTop=-1;spacingLeft=3;spacingRight=3;rotatable=0;labelPosition=right;points=[];portConstraint=eastwest;fontSize=50;" parent="3ZzalH3yHNWKxI1yRY4I-209" vertex="1">
          <mxGeometry y="140" width="360" height="8" as="geometry" />
        </mxCell>
        <mxCell id="3ZzalH3yHNWKxI1yRY4I-212" value="Genre" style="swimlane;fontStyle=1;align=center;verticalAlign=top;childLayout=stackLayout;horizontal=1;startSize=65;horizontalStack=0;resizeParent=1;resizeParentMax=0;resizeLast=0;collapsible=1;marginBottom=0;fontSize=50;" parent="1" vertex="1">
          <mxGeometry x="209" y="1850" width="210" height="80" as="geometry" />
        </mxCell>
        <mxCell id="3ZzalH3yHNWKxI1yRY4I-213" value="" style="line;strokeWidth=1;fillColor=none;align=left;verticalAlign=middle;spacingTop=-1;spacingLeft=3;spacingRight=3;rotatable=0;labelPosition=right;points=[];portConstraint=eastwest;fontSize=50;" parent="3ZzalH3yHNWKxI1yRY4I-212" vertex="1">
          <mxGeometry y="65" width="210" height="15" as="geometry" />
        </mxCell>
        <mxCell id="3ZzalH3yHNWKxI1yRY4I-214" style="edgeStyle=orthogonalEdgeStyle;rounded=0;orthogonalLoop=1;jettySize=auto;html=1;exitX=0.5;exitY=0;exitDx=0;exitDy=0;entryX=0.5;entryY=1;entryDx=0;entryDy=0;endArrow=diamond;endFill=0;fontSize=50;strokeWidth=3;" parent="1" source="3ZzalH3yHNWKxI1yRY4I-215" target="3ZzalH3yHNWKxI1yRY4I-212" edge="1">
          <mxGeometry relative="1" as="geometry" />
        </mxCell>
        <mxCell id="3ZzalH3yHNWKxI1yRY4I-215" value="Espèce" style="swimlane;fontStyle=1;align=center;verticalAlign=top;childLayout=stackLayout;horizontal=1;startSize=66;horizontalStack=0;resizeParent=1;resizeParentMax=0;resizeLast=0;collapsible=1;marginBottom=0;fontSize=50;" parent="1" vertex="1">
          <mxGeometry x="210" y="2348" width="210" height="76" as="geometry" />
        </mxCell>
        <mxCell id="3ZzalH3yHNWKxI1yRY4I-216" value="" style="line;strokeWidth=1;fillColor=none;align=left;verticalAlign=middle;spacingTop=-1;spacingLeft=3;spacingRight=3;rotatable=0;labelPosition=right;points=[];portConstraint=eastwest;fontSize=50;" parent="3ZzalH3yHNWKxI1yRY4I-215" vertex="1">
          <mxGeometry y="66" width="210" height="10" as="geometry" />
        </mxCell>
        <mxCell id="3ZzalH3yHNWKxI1yRY4I-218" value="Arthropode" style="swimlane;fontStyle=1;align=center;verticalAlign=top;childLayout=stackLayout;horizontal=1;startSize=60;horizontalStack=0;resizeParent=1;resizeParentMax=0;resizeLast=0;collapsible=1;marginBottom=0;fillColor=#dae8fc;strokeColor=#6c8ebf;fontSize=50;" parent="1" vertex="1">
          <mxGeometry x="-1460" y="1434" width="370" height="70" as="geometry">
            <mxRectangle x="-890" y="1690" width="310" height="70" as="alternateBounds" />
          </mxGeometry>
        </mxCell>
        <mxCell id="3ZzalH3yHNWKxI1yRY4I-219" value="" style="line;strokeWidth=1;fillColor=none;align=left;verticalAlign=middle;spacingTop=-1;spacingLeft=3;spacingRight=3;rotatable=0;labelPosition=right;points=[];portConstraint=eastwest;fontSize=50;" parent="3ZzalH3yHNWKxI1yRY4I-218" vertex="1">
          <mxGeometry y="60" width="370" height="10" as="geometry" />
        </mxCell>
        <mxCell id="3ZzalH3yHNWKxI1yRY4I-220" style="edgeStyle=orthogonalEdgeStyle;rounded=0;orthogonalLoop=1;jettySize=auto;html=1;exitX=0.5;exitY=0;exitDx=0;exitDy=0;entryX=0.5;entryY=1;entryDx=0;entryDy=0;endArrow=block;endFill=0;fontSize=50;strokeWidth=3;" parent="1" target="3ZzalH3yHNWKxI1yRY4I-218" edge="1">
          <mxGeometry relative="1" as="geometry">
            <mxPoint x="-1275" y="1558" as="sourcePoint" />
          </mxGeometry>
        </mxCell>
        <mxCell id="3ZzalH3yHNWKxI1yRY4I-223" style="edgeStyle=orthogonalEdgeStyle;rounded=0;orthogonalLoop=1;jettySize=auto;html=1;exitX=0.5;exitY=1;exitDx=0;exitDy=0;entryX=0;entryY=0.25;entryDx=0;entryDy=0;endArrow=block;endFill=0;fontSize=50;strokeWidth=3;" parent="1" source="3ZzalH3yHNWKxI1yRY4I-68" target="3ZzalH3yHNWKxI1yRY4I-215" edge="1">
          <mxGeometry relative="1" as="geometry">
            <Array as="points">
              <mxPoint x="-775" y="2360" />
              <mxPoint x="-450" y="2360" />
              <mxPoint x="-450" y="2357" />
            </Array>
          </mxGeometry>
        </mxCell>
        <mxCell id="3ZzalH3yHNWKxI1yRY4I-226" style="edgeStyle=orthogonalEdgeStyle;rounded=0;orthogonalLoop=1;jettySize=auto;html=1;exitX=0.25;exitY=0;exitDx=0;exitDy=0;entryX=0;entryY=0.25;entryDx=0;entryDy=0;startArrow=none;startFill=0;endArrow=none;endFill=0;fontSize=50;" parent="1" source="3ZzalH3yHNWKxI1yRY4I-169" target="3ZzalH3yHNWKxI1yRY4I-169" edge="1">
          <mxGeometry relative="1" as="geometry">
            <Array as="points">
              <mxPoint x="982" y="3959" />
              <mxPoint x="931" y="3959" />
              <mxPoint x="931" y="3989" />
            </Array>
          </mxGeometry>
        </mxCell>
        <mxCell id="3ZzalH3yHNWKxI1yRY4I-227" value="Généralise" style="edgeLabel;html=1;align=center;verticalAlign=middle;resizable=0;points=[];fontSize=50;" parent="3ZzalH3yHNWKxI1yRY4I-226" vertex="1" connectable="0">
          <mxGeometry x="-0.0899" relative="1" as="geometry">
            <mxPoint x="-31" y="10" as="offset" />
          </mxGeometry>
        </mxCell>
        <mxCell id="3ZzalH3yHNWKxI1yRY4I-232" value="&amp;lt; modifie" style="text;html=1;align=center;verticalAlign=middle;resizable=0;points=[];autosize=1;strokeColor=none;fillColor=none;fontSize=50;" parent="1" vertex="1">
          <mxGeometry x="-1070" y="3388" width="230" height="70" as="geometry" />
        </mxCell>
        <mxCell id="3ZzalH3yHNWKxI1yRY4I-233" value="" style="edgeStyle=orthogonalEdgeStyle;rounded=0;orthogonalLoop=1;jettySize=auto;html=1;exitX=0;exitY=0.5;exitDx=0;exitDy=0;endArrow=none;endFill=0;fontSize=50;" parent="1" source="3ZzalH3yHNWKxI1yRY4I-159" target="3ZzalH3yHNWKxI1yRY4I-232" edge="1">
          <mxGeometry relative="1" as="geometry">
            <mxPoint x="-900" y="3373" as="sourcePoint" />
            <mxPoint x="-981" y="3464" as="targetPoint" />
          </mxGeometry>
        </mxCell>
        <mxCell id="3ZzalH3yHNWKxI1yRY4I-234" style="edgeStyle=orthogonalEdgeStyle;rounded=0;orthogonalLoop=1;jettySize=auto;html=1;entryX=0.5;entryY=1;entryDx=0;entryDy=0;fontSize=50;fontColor=#EA6B66;startArrow=none;startFill=0;endArrow=none;endFill=0;" parent="1" source="3ZzalH3yHNWKxI1yRY4I-235" target="3ZzalH3yHNWKxI1yRY4I-158" edge="1">
          <mxGeometry relative="1" as="geometry" />
        </mxCell>
        <mxCell id="3ZzalH3yHNWKxI1yRY4I-235" value="&amp;lt; Contribuent" style="text;html=1;align=center;verticalAlign=middle;resizable=0;points=[];autosize=1;strokeColor=none;fillColor=none;fontSize=50;" parent="1" vertex="1">
          <mxGeometry x="-984" y="3401" width="330" height="70" as="geometry" />
        </mxCell>
        <mxCell id="3ZzalH3yHNWKxI1yRY4I-236" value="" style="edgeStyle=orthogonalEdgeStyle;rounded=0;orthogonalLoop=1;jettySize=auto;html=1;entryX=0.5;entryY=1;entryDx=0;entryDy=0;endArrow=none;endFill=0;fontSize=50;" parent="1" target="3ZzalH3yHNWKxI1yRY4I-235" edge="1">
          <mxGeometry relative="1" as="geometry">
            <mxPoint x="820" y="3431" as="sourcePoint" />
            <mxPoint x="-129" y="3302" as="targetPoint" />
          </mxGeometry>
        </mxCell>
        <mxCell id="3ZzalH3yHNWKxI1yRY4I-237" style="edgeStyle=orthogonalEdgeStyle;rounded=0;orthogonalLoop=1;jettySize=auto;html=1;entryX=0.25;entryY=1;entryDx=0;entryDy=0;startArrow=none;startFill=0;endArrow=open;endFill=0;dashed=1;dashPattern=1 1;fontSize=50;endSize=16;" parent="1" source="3ZzalH3yHNWKxI1yRY4I-238" target="3ZzalH3yHNWKxI1yRY4I-169" edge="1">
          <mxGeometry relative="1" as="geometry" />
        </mxCell>
        <mxCell id="3ZzalH3yHNWKxI1yRY4I-238" value="Pro" style="swimlane;fontStyle=4;childLayout=stackLayout;horizontal=1;startSize=67;fillColor=none;horizontalStack=0;resizeParent=1;resizeParentMax=0;resizeLast=0;collapsible=1;marginBottom=0;fontFamily=Helvetica;fontSize=50;fontColor=default;" parent="1" vertex="1">
          <mxGeometry x="530" y="4363" width="512" height="191" as="geometry">
            <mxRectangle x="610" y="510" width="40" height="26" as="alternateBounds" />
          </mxGeometry>
        </mxCell>
        <mxCell id="3ZzalH3yHNWKxI1yRY4I-239" value="label=&quot;Professionnelle&quot;" style="text;strokeColor=none;fillColor=none;align=left;verticalAlign=top;spacingLeft=4;spacingRight=4;overflow=hidden;rotatable=0;points=[[0,0.5],[1,0.5]];portConstraint=eastwest;fontFamily=Helvetica;fontSize=50;fontColor=default;" parent="3ZzalH3yHNWKxI1yRY4I-238" vertex="1">
          <mxGeometry y="67" width="512" height="124" as="geometry" />
        </mxCell>
        <mxCell id="3ZzalH3yHNWKxI1yRY4I-240" style="edgeStyle=orthogonalEdgeStyle;rounded=0;orthogonalLoop=1;jettySize=auto;html=1;entryX=0.5;entryY=1;entryDx=0;entryDy=0;startArrow=none;startFill=0;endArrow=open;endFill=0;exitX=0.5;exitY=0;exitDx=0;exitDy=0;dashed=1;dashPattern=1 1;fontSize=50;endSize=16;" parent="1" source="3ZzalH3yHNWKxI1yRY4I-241" target="3ZzalH3yHNWKxI1yRY4I-169" edge="1">
          <mxGeometry relative="1" as="geometry">
            <Array as="points">
              <mxPoint x="1341" y="4243" />
              <mxPoint x="1176" y="4243" />
              <mxPoint x="1176" y="4069" />
              <mxPoint x="1161" y="4069" />
            </Array>
          </mxGeometry>
        </mxCell>
        <mxCell id="3ZzalH3yHNWKxI1yRY4I-241" value="Loi" style="swimlane;fontStyle=4;childLayout=stackLayout;horizontal=1;startSize=67;fillColor=none;horizontalStack=0;resizeParent=1;resizeParentMax=0;resizeLast=0;collapsible=1;marginBottom=0;fontSize=50;" parent="1" vertex="1">
          <mxGeometry x="1141" y="4363" width="399" height="167" as="geometry" />
        </mxCell>
        <mxCell id="3ZzalH3yHNWKxI1yRY4I-242" value="label=&quot;Loisir&quot;" style="text;strokeColor=none;fillColor=none;align=left;verticalAlign=top;spacingLeft=4;spacingRight=4;overflow=hidden;rotatable=0;points=[[0,0.5],[1,0.5]];portConstraint=eastwest;fontSize=50;" parent="3ZzalH3yHNWKxI1yRY4I-241" vertex="1">
          <mxGeometry y="67" width="399" height="100" as="geometry" />
        </mxCell>
        <mxCell id="3ZzalH3yHNWKxI1yRY4I-246" style="edgeStyle=orthogonalEdgeStyle;rounded=0;orthogonalLoop=1;jettySize=auto;html=1;dashed=1;dashPattern=1 1;startArrow=none;startFill=0;endArrow=open;endFill=0;exitX=0.5;exitY=0;exitDx=0;exitDy=0;fontSize=50;endSize=16;" parent="1" source="3ZzalH3yHNWKxI1yRY4I-247" edge="1">
          <mxGeometry relative="1" as="geometry">
            <mxPoint x="1530" y="4133" as="targetPoint" />
          </mxGeometry>
        </mxCell>
        <mxCell id="3ZzalH3yHNWKxI1yRY4I-247" value="Dom" style="swimlane;fontStyle=4;childLayout=stackLayout;horizontal=1;startSize=57;fillColor=none;horizontalStack=0;resizeParent=1;resizeParentMax=0;resizeLast=0;collapsible=1;marginBottom=0;fontSize=50;" parent="1" vertex="1">
          <mxGeometry x="1684" y="4363" width="504" height="131" as="geometry" />
        </mxCell>
        <mxCell id="3ZzalH3yHNWKxI1yRY4I-248" value="label=&quot;Domestique&quot;" style="text;strokeColor=none;fillColor=none;align=left;verticalAlign=top;spacingLeft=4;spacingRight=4;overflow=hidden;rotatable=0;points=[[0,0.5],[1,0.5]];portConstraint=eastwest;fontSize=50;" parent="3ZzalH3yHNWKxI1yRY4I-247" vertex="1">
          <mxGeometry y="57" width="504" height="74" as="geometry" />
        </mxCell>
        <mxCell id="3ZzalH3yHNWKxI1yRY4I-258" style="edgeStyle=orthogonalEdgeStyle;rounded=0;orthogonalLoop=1;jettySize=auto;html=1;entryX=0.5;entryY=1;entryDx=0;entryDy=0;dashed=1;startArrow=none;startFill=0;endArrow=none;endFill=0;fontSize=50;strokeWidth=3;" parent="1" source="3ZzalH3yHNWKxI1yRY4I-259" target="3ZzalH3yHNWKxI1yRY4I-30" edge="1">
          <mxGeometry relative="1" as="geometry" />
        </mxCell>
        <mxCell id="3ZzalH3yHNWKxI1yRY4I-259" value="" style="shape=waypoint;sketch=0;size=6;pointerEvents=1;points=[];fillColor=none;resizable=0;rotatable=0;perimeter=centerPerimeter;snapToPoint=1;fontSize=50;" parent="1" vertex="1">
          <mxGeometry x="694" y="1528" width="40" height="40" as="geometry" />
        </mxCell>
        <mxCell id="3ZzalH3yHNWKxI1yRY4I-260" value="" style="edgeStyle=orthogonalEdgeStyle;rounded=0;orthogonalLoop=1;jettySize=auto;html=1;exitX=1;exitY=0.5;exitDx=0;exitDy=0;entryDx=0;entryDy=0;endArrow=none;endFill=0;fontSize=50;strokeWidth=3;" parent="1" source="3ZzalH3yHNWKxI1yRY4I-51" target="3ZzalH3yHNWKxI1yRY4I-259" edge="1">
          <mxGeometry relative="1" as="geometry">
            <Array as="points">
              <mxPoint x="-240" y="1615" />
              <mxPoint x="-240" y="1670" />
              <mxPoint x="714" y="1670" />
            </Array>
            <mxPoint x="-477" y="1332" as="sourcePoint" />
            <mxPoint x="1585" y="1118" as="targetPoint" />
          </mxGeometry>
        </mxCell>
        <mxCell id="3ZzalH3yHNWKxI1yRY4I-261" style="edgeStyle=orthogonalEdgeStyle;rounded=0;orthogonalLoop=1;jettySize=auto;html=1;entryX=0.75;entryY=0;entryDx=0;entryDy=0;fontSize=50;fontColor=#EA6B66;startArrow=none;startFill=0;endArrow=none;endFill=0;exitX=0.25;exitY=1;exitDx=0;exitDy=0;strokeWidth=3;" parent="1" source="3ZzalH3yHNWKxI1yRY4I-262" target="3ZzalH3yHNWKxI1yRY4I-80" edge="1">
          <mxGeometry relative="1" as="geometry" />
        </mxCell>
        <mxCell id="3ZzalH3yHNWKxI1yRY4I-262" value="Moment" style="swimlane;fontStyle=1;align=center;verticalAlign=top;childLayout=stackLayout;horizontal=1;startSize=62;horizontalStack=0;resizeParent=1;resizeParentMax=0;resizeLast=0;collapsible=1;marginBottom=0;fillColor=#eeeeee;strokeColor=#36393d;fontSize=50;" parent="1" vertex="1">
          <mxGeometry x="960" y="1230" width="440" height="378" as="geometry">
            <mxRectangle x="600" y="310" width="90" height="26" as="alternateBounds" />
          </mxGeometry>
        </mxCell>
        <mxCell id="3ZzalH3yHNWKxI1yRY4I-263" value="+ nom: char&#xa;+ date: date&#xa;+ heure: heure&#xa;+ saison: char&#xa;+ ..." style="text;strokeColor=none;fillColor=none;align=left;verticalAlign=top;spacingLeft=4;spacingRight=4;overflow=hidden;rotatable=0;points=[[0,0.5],[1,0.5]];portConstraint=eastwest;fontSize=50;" parent="3ZzalH3yHNWKxI1yRY4I-262" vertex="1">
          <mxGeometry y="62" width="440" height="308" as="geometry" />
        </mxCell>
        <mxCell id="3ZzalH3yHNWKxI1yRY4I-264" value="" style="line;strokeWidth=1;fillColor=none;align=left;verticalAlign=middle;spacingTop=-1;spacingLeft=3;spacingRight=3;rotatable=0;labelPosition=right;points=[];portConstraint=eastwest;fontSize=50;" parent="3ZzalH3yHNWKxI1yRY4I-262" vertex="1">
          <mxGeometry y="370" width="440" height="8" as="geometry" />
        </mxCell>
        <mxCell id="3ZzalH3yHNWKxI1yRY4I-265" style="edgeStyle=orthogonalEdgeStyle;rounded=0;orthogonalLoop=1;jettySize=auto;html=1;exitX=0.5;exitY=1;exitDx=0;exitDy=0;entryX=0.5;entryY=0;entryDx=0;entryDy=0;fontSize=50;fontColor=#EA6B66;startArrow=none;startFill=0;endArrow=none;endFill=0;dashed=1;strokeWidth=3;" parent="1" source="3ZzalH3yHNWKxI1yRY4I-266" target="3ZzalH3yHNWKxI1yRY4I-271" edge="1">
          <mxGeometry relative="1" as="geometry" />
        </mxCell>
        <mxCell id="3ZzalH3yHNWKxI1yRY4I-266" value="Occurence de vecteurs" style="swimlane;fontStyle=1;align=center;verticalAlign=top;childLayout=stackLayout;horizontal=1;startSize=80;horizontalStack=0;resizeParent=1;resizeParentMax=0;resizeLast=0;collapsible=1;marginBottom=0;fillColor=#dae8fc;strokeColor=#6c8ebf;gradientDirection=east;gradientColor=none;fontSize=50;" parent="1" vertex="1">
          <mxGeometry x="-610" y="566" width="860" height="240" as="geometry" />
        </mxCell>
        <mxCell id="3ZzalH3yHNWKxI1yRY4I-267" value="+ présence : boolean&#xa;+ abondance : real" style="text;strokeColor=none;fillColor=none;align=left;verticalAlign=top;spacingLeft=4;spacingRight=4;overflow=hidden;rotatable=0;points=[[0,0.5],[1,0.5]];portConstraint=eastwest;fontSize=50;" parent="3ZzalH3yHNWKxI1yRY4I-266" vertex="1">
          <mxGeometry y="80" width="860" height="150" as="geometry" />
        </mxCell>
        <mxCell id="3ZzalH3yHNWKxI1yRY4I-268" value="" style="line;strokeWidth=1;fillColor=none;align=left;verticalAlign=middle;spacingTop=-1;spacingLeft=3;spacingRight=3;rotatable=0;labelPosition=right;points=[];portConstraint=eastwest;fontSize=50;" parent="3ZzalH3yHNWKxI1yRY4I-266" vertex="1">
          <mxGeometry y="230" width="860" height="10" as="geometry" />
        </mxCell>
        <mxCell id="3ZzalH3yHNWKxI1yRY4I-269" style="edgeStyle=orthogonalEdgeStyle;rounded=0;orthogonalLoop=1;jettySize=auto;html=1;entryX=0;entryY=0.25;entryDx=0;entryDy=0;fontSize=50;fontColor=#EA6B66;startArrow=none;startFill=0;endArrow=none;endFill=0;exitX=0.5;exitY=1;exitDx=0;exitDy=0;strokeWidth=3;" parent="1" source="3ZzalH3yHNWKxI1yRY4I-271" target="3ZzalH3yHNWKxI1yRY4I-262" edge="1">
          <mxGeometry relative="1" as="geometry" />
        </mxCell>
        <mxCell id="3ZzalH3yHNWKxI1yRY4I-270" style="edgeStyle=orthogonalEdgeStyle;rounded=0;orthogonalLoop=1;jettySize=auto;html=1;fontSize=50;fontColor=#EA6B66;startArrow=none;startFill=0;endArrow=none;endFill=0;entryX=0;entryY=0.25;entryDx=0;entryDy=0;exitX=1;exitY=0.5;exitDx=0;exitDy=0;strokeWidth=3;" parent="1" source="3ZzalH3yHNWKxI1yRY4I-271" target="3ZzalH3yHNWKxI1yRY4I-165" edge="1">
          <mxGeometry relative="1" as="geometry">
            <mxPoint x="1134" y="967" as="targetPoint" />
          </mxGeometry>
        </mxCell>
        <mxCell id="3ZzalH3yHNWKxI1yRY4I-271" value="" style="rhombus;aspect=fixed;fontSize=50;strokeWidth=2;perimeterSpacing=1;" parent="1" vertex="1">
          <mxGeometry x="326" y="1010" width="94" height="94" as="geometry" />
        </mxCell>
        <mxCell id="3ZzalH3yHNWKxI1yRY4I-272" style="edgeStyle=orthogonalEdgeStyle;rounded=0;orthogonalLoop=1;jettySize=auto;html=1;entryX=0.75;entryY=1;entryDx=0;entryDy=0;fontSize=50;fontColor=#EA6B66;startArrow=none;startFill=0;endArrow=none;endFill=0;strokeWidth=3;" parent="1" source="3ZzalH3yHNWKxI1yRY4I-43" target="3ZzalH3yHNWKxI1yRY4I-262" edge="1">
          <mxGeometry relative="1" as="geometry" />
        </mxCell>
        <mxCell id="3ZzalH3yHNWKxI1yRY4I-277" value="&amp;lt; Contribue" style="edgeLabel;html=1;align=center;verticalAlign=middle;resizable=0;points=[];fontSize=50;" parent="1" vertex="1" connectable="0">
          <mxGeometry x="1160.003333333333" y="956.0033333333333" as="geometry" />
        </mxCell>
        <mxCell id="3ZzalH3yHNWKxI1yRY4I-278" value="Contribue &amp;gt;" style="edgeLabel;html=1;align=center;verticalAlign=middle;resizable=0;points=[];fontSize=50;" parent="1" vertex="1" connectable="0">
          <mxGeometry x="827.0033333333332" y="950.0033333333333" as="geometry" />
        </mxCell>
        <mxCell id="ZHWQrGtpnkybYDUMCbcR-1" value="Individu humain" style="swimlane;fontStyle=1;align=center;verticalAlign=top;childLayout=stackLayout;horizontal=1;startSize=70;horizontalStack=0;resizeParent=1;resizeParentMax=0;resizeLast=0;collapsible=1;marginBottom=0;fillColor=#ffe6cc;strokeColor=#d79b00;fontSize=50;" parent="1" vertex="1">
          <mxGeometry x="1950" y="1440" width="880" height="518" as="geometry" />
        </mxCell>
        <mxCell id="ZHWQrGtpnkybYDUMCbcR-2" value="+ activité prof. principale: char&#xa;+ activité de loisir principale: char&#xa;+ protection individuelle: char&#xa;+ susceptibilité individuelle (génétique, G6PD, ...): ...&#xa;+ connaissance du risque: char&#xa;+ sexe&#xa;+ date naissance" style="text;strokeColor=none;fillColor=none;align=left;verticalAlign=top;spacingLeft=4;spacingRight=4;overflow=hidden;rotatable=0;points=[[0,0.5],[1,0.5]];portConstraint=eastwest;fontSize=50;" parent="ZHWQrGtpnkybYDUMCbcR-1" vertex="1">
          <mxGeometry y="70" width="880" height="440" as="geometry" />
        </mxCell>
        <mxCell id="ZHWQrGtpnkybYDUMCbcR-3" value="" style="line;strokeWidth=1;fillColor=none;align=left;verticalAlign=middle;spacingTop=-1;spacingLeft=3;spacingRight=3;rotatable=0;labelPosition=right;points=[];portConstraint=eastwest;fontSize=50;" parent="ZHWQrGtpnkybYDUMCbcR-1" vertex="1">
          <mxGeometry y="510" width="880" height="8" as="geometry" />
        </mxCell>
        <mxCell id="ZHWQrGtpnkybYDUMCbcR-4" value="Population humaine" style="swimlane;fontStyle=1;align=center;verticalAlign=top;childLayout=stackLayout;horizontal=1;startSize=72;horizontalStack=0;resizeParent=1;resizeParentMax=0;resizeLast=0;collapsible=1;marginBottom=0;fillColor=#ffe6cc;strokeColor=#d79b00;fontSize=50;" parent="1" vertex="1">
          <mxGeometry x="1790" y="498" width="1350" height="474" as="geometry" />
        </mxCell>
        <mxCell id="ZHWQrGtpnkybYDUMCbcR-5" value="+ activités (%): real&#xa;+ densité: real&#xa;+ susceptibilité individuelle (génétique, G6PD, ...) (taux): real&#xa;+ connaissance du risque: real&#xa;+ protections individuelles (taux d&#39;utilisation): real&#xa;+..." style="text;strokeColor=none;fillColor=none;align=left;verticalAlign=top;spacingLeft=4;spacingRight=4;overflow=hidden;rotatable=0;points=[[0,0.5],[1,0.5]];portConstraint=eastwest;fontSize=50;" parent="ZHWQrGtpnkybYDUMCbcR-4" vertex="1">
          <mxGeometry y="72" width="1350" height="394" as="geometry" />
        </mxCell>
        <mxCell id="ZHWQrGtpnkybYDUMCbcR-6" value="" style="line;strokeWidth=1;fillColor=none;align=left;verticalAlign=middle;spacingTop=-1;spacingLeft=3;spacingRight=3;rotatable=0;labelPosition=right;points=[];portConstraint=eastwest;fontSize=50;" parent="ZHWQrGtpnkybYDUMCbcR-4" vertex="1">
          <mxGeometry y="466" width="1350" height="8" as="geometry" />
        </mxCell>
        <mxCell id="eCTmfTK2wu2DxQ8o13dD-27" value="Moustique" style="swimlane;fontStyle=1;align=center;verticalAlign=top;childLayout=stackLayout;horizontal=1;startSize=60;horizontalStack=0;resizeParent=1;resizeParentMax=0;resizeLast=0;collapsible=1;marginBottom=0;fillColor=#dae8fc;strokeColor=#6c8ebf;fontSize=50;" vertex="1" parent="1">
          <mxGeometry x="-1460" y="1558" width="370" height="70" as="geometry">
            <mxRectangle x="-890" y="1690" width="310" height="70" as="alternateBounds" />
          </mxGeometry>
        </mxCell>
        <mxCell id="eCTmfTK2wu2DxQ8o13dD-28" value="" style="line;strokeWidth=1;fillColor=none;align=left;verticalAlign=middle;spacingTop=-1;spacingLeft=3;spacingRight=3;rotatable=0;labelPosition=right;points=[];portConstraint=eastwest;fontSize=50;" vertex="1" parent="eCTmfTK2wu2DxQ8o13dD-27">
          <mxGeometry y="60" width="370" height="10" as="geometry" />
        </mxCell>
        <mxCell id="eCTmfTK2wu2DxQ8o13dD-32" style="edgeStyle=orthogonalEdgeStyle;rounded=0;orthogonalLoop=1;jettySize=auto;html=1;exitX=0.5;exitY=0;exitDx=0;exitDy=0;entryX=0.5;entryY=1;entryDx=0;entryDy=0;strokeWidth=3;fontSize=50;endSize=7;endArrow=block;endFill=0;" edge="1" parent="1" source="eCTmfTK2wu2DxQ8o13dD-29" target="eCTmfTK2wu2DxQ8o13dD-27">
          <mxGeometry relative="1" as="geometry" />
        </mxCell>
        <mxCell id="eCTmfTK2wu2DxQ8o13dD-29" value="Aedes" style="swimlane;fontStyle=1;align=center;verticalAlign=top;childLayout=stackLayout;horizontal=1;startSize=60;horizontalStack=0;resizeParent=1;resizeParentMax=0;resizeLast=0;collapsible=1;marginBottom=0;fillColor=#dae8fc;strokeColor=#6c8ebf;fontSize=50;" vertex="1" parent="1">
          <mxGeometry x="-1460" y="1684" width="370" height="70" as="geometry">
            <mxRectangle x="-890" y="1690" width="310" height="70" as="alternateBounds" />
          </mxGeometry>
        </mxCell>
        <mxCell id="eCTmfTK2wu2DxQ8o13dD-30" value="" style="line;strokeWidth=1;fillColor=none;align=left;verticalAlign=middle;spacingTop=-1;spacingLeft=3;spacingRight=3;rotatable=0;labelPosition=right;points=[];portConstraint=eastwest;fontSize=50;" vertex="1" parent="eCTmfTK2wu2DxQ8o13dD-29">
          <mxGeometry y="60" width="370" height="10" as="geometry" />
        </mxCell>
        <mxCell id="3ZzalH3yHNWKxI1yRY4I-198" value="généralise" style="text;html=1;align=center;verticalAlign=middle;resizable=0;points=[];autosize=1;strokeColor=none;fillColor=none;fontSize=50;" parent="1" vertex="1">
          <mxGeometry x="-1980" y="3439" width="250" height="70" as="geometry" />
        </mxCell>
        <mxCell id="eCTmfTK2wu2DxQ8o13dD-34" value="" style="edgeStyle=orthogonalEdgeStyle;rounded=0;orthogonalLoop=1;jettySize=auto;html=1;exitX=0.25;exitY=0;exitDx=0;exitDy=0;endArrow=none;endFill=0;entryX=0;entryY=0.232;entryDx=0;entryDy=0;entryPerimeter=0;fontSize=50;" edge="1" parent="1" source="3ZzalH3yHNWKxI1yRY4I-89" target="3ZzalH3yHNWKxI1yRY4I-198">
          <mxGeometry relative="1" as="geometry">
            <mxPoint x="-2140" y="3732.3360000000002" as="targetPoint" />
            <Array as="points">
              <mxPoint x="-1485" y="3472" />
            </Array>
            <mxPoint x="-2054.9999999999995" y="3698" as="sourcePoint" />
          </mxGeometry>
        </mxCell>
      </root>
    </mxGraphModel>
  </diagram>
</mxfile>
